<svg width="435" height="424" viewBox="0 0 435 424" fill="none" xmlns="http://www.w3.org/2000/svg">
<path d="M404.711 219.756C406.71 193.194 400.527 165.45 392.248 140.722C379.951 103.991 356.078 66.326 315.878 57.632C292.695 52.618 269.105 57.991 249.233 70.551C230.118 82.632 215.21 98.237 191.718 101.26C167.95 104.319 143.561 103.087 119.666 103.087C58.239 103.087 8.38595 167.621 20.849 234.844C33.312 302.066 92.068 348.674 141.923 348.674C186.721 348.674 223.577 321.796 266.127 314.581C287.228 311.003 308.417 315.237 329.296 309.876C353.566 303.644 376.39 288.768 389.835 267.235C398.999 252.56 403.459 236.39 404.711 219.756Z" fill="#4355F1"/>
<path opacity="0.7" d="M404.711 219.756C406.71 193.194 400.527 165.45 392.248 140.722C379.951 103.991 356.078 66.326 315.878 57.632C292.695 52.618 269.105 57.991 249.233 70.551C230.118 82.632 215.21 98.237 191.718 101.26C167.95 104.319 143.561 103.087 119.666 103.087C58.239 103.087 8.38595 167.621 20.849 234.844C33.312 302.066 92.068 348.674 141.923 348.674C186.721 348.674 223.577 321.796 266.127 314.581C287.228 311.003 308.417 315.237 329.296 309.876C353.566 303.644 376.39 288.768 389.835 267.235C398.999 252.56 403.459 236.39 404.711 219.756Z" fill="white"/>
<path d="M397.523 210.432C397.523 210.432 397.523 205.458 390.56 198.496C383.597 191.533 379.121 187.554 379.121 187.554C379.121 187.554 375.639 198.993 382.105 205.956C388.571 212.919 397.523 219.385 397.523 219.385V210.432Z" fill="#4355F1"/>
<path d="M387.417 241.492C387.417 241.492 387.417 236.519 380.454 229.556C373.491 222.593 369.015 218.614 369.015 218.614C369.015 218.614 365.533 230.053 371.999 237.016C378.465 243.979 387.417 250.445 387.417 250.445V241.492Z" fill="#4355F1"/>
<path d="M397.085 218.903C397.085 218.903 397.61 213.957 405.27 207.769C412.93 201.581 417.801 198.097 417.801 198.097C417.801 198.097 420.054 209.84 412.889 216.081C405.724 222.322 396.138 227.805 396.138 227.805L397.085 218.903Z" fill="#4355F1"/>
<path d="M384.877 255.585C384.877 255.585 385.919 250.722 394.187 245.372C402.454 240.022 407.665 237.07 407.665 237.07C407.665 237.07 408.672 248.985 400.891 254.438C393.11 259.892 383.002 264.338 383.002 264.338L384.877 255.585Z" fill="#4355F1"/>
<path d="M387.172 295.58C387.172 295.58 387.172 290.606 394.135 283.643C401.098 276.68 405.574 272.701 405.574 272.701C405.574 272.701 409.056 284.14 402.59 291.103C396.124 298.066 387.172 304.532 387.172 304.532V295.58Z" fill="#4355F1"/>
<path d="M387.056 305.342C387.056 305.342 387.763 300.419 381.86 292.537C375.957 284.655 372.092 280.081 372.092 280.081C372.092 280.081 367.02 290.909 372.431 298.72C377.841 306.531 385.784 314.203 385.784 314.203L387.056 305.342Z" fill="#4355F1"/>
<path d="M380.19 334.273C380.19 334.273 380.19 329.3 387.153 322.337C394.116 315.374 398.592 311.395 398.592 311.395C398.592 311.395 402.074 322.834 395.608 329.797C389.142 336.76 380.19 343.226 380.19 343.226V334.273Z" fill="#4355F1"/>
<path d="M384.84 360.504C384.84 360.504 383.58 355.693 388.553 347.193C393.525 338.694 396.848 333.711 396.848 333.711C396.848 333.711 403.113 343.895 398.622 352.269C394.131 360.643 387.108 369.165 387.108 369.165L384.84 360.504Z" fill="#4355F1"/>
<path d="M398.154 209.157C397.746 214.473 397.142 219.973 396.247 224.6C393.495 238.821 386.613 247.996 383.861 260.84C381.108 273.685 389.01 290.233 386.894 306.731C384.778 323.229 378.356 332.404 380.191 343.413C382.026 354.423 391.66 384.241 391.66 384.241" stroke="#263238" stroke-miterlimit="10" stroke-linecap="round" stroke-linejoin="round"/>
<path d="M397.016 222.208L404.52 216.449" stroke="#263238" stroke-miterlimit="10" stroke-linecap="round" stroke-linejoin="round"/>
<path d="M397.365 215.577L394.224 209.993" stroke="#263238" stroke-miterlimit="10" stroke-linecap="round" stroke-linejoin="round"/>
<path d="M384.277 260.25C384.277 260.25 390.559 255.538 397.016 250.827" stroke="#263238" stroke-miterlimit="10" stroke-linecap="round" stroke-linejoin="round"/>
<path d="M387.417 250.445C387.417 250.445 382.183 240.182 376.25 233.377" stroke="#263238" stroke-miterlimit="10" stroke-linecap="round" stroke-linejoin="round"/>
<path d="M387.419 302.655C387.419 302.655 392.305 293.057 400.856 284.681" stroke="#263238" stroke-miterlimit="10" stroke-linecap="round" stroke-linejoin="round"/>
<path d="M386.197 309.635C386.197 309.635 383.056 302.131 379.391 296.722C375.726 291.312 375.203 290.614 375.203 290.614" stroke="#263238" stroke-miterlimit="10" stroke-linecap="round" stroke-linejoin="round"/>
<path d="M380.19 343.413C380.19 343.413 382.706 337.032 385.848 331.972C388.989 326.911 393.177 322.374 393.177 322.374" stroke="#263238" stroke-miterlimit="10" stroke-linecap="round" stroke-linejoin="round"/>
<path d="M387.107 369.164C387.107 369.164 386.371 363.208 388.989 358.148C391.607 353.087 394.573 346.456 395.795 343.839" stroke="#263238" stroke-miterlimit="10" stroke-linecap="round" stroke-linejoin="round"/>
<path d="M340.701 276.875C340.701 276.875 340.161 273.756 343.771 268.634C347.382 263.512 349.756 260.531 349.756 260.531C349.756 260.531 353.181 267.326 349.882 272.394C346.583 277.462 341.671 282.489 341.671 282.489L340.701 276.875Z" fill="#4355F1"/>
<path d="M350.409 295.256C350.409 295.256 349.869 292.137 353.48 287.015C357.09 281.893 359.465 278.912 359.465 278.912C359.465 278.912 362.89 285.707 359.591 290.775C356.292 295.843 351.38 300.87 351.38 300.87L350.409 295.256Z" fill="#4355F1"/>
<path d="M341.895 282.14C341.895 282.14 341.029 279.096 335.554 276.047C330.079 272.998 326.646 271.342 326.646 271.342C326.646 271.342 326.508 278.95 331.678 282.086C336.849 285.222 343.455 287.62 343.455 287.62L341.895 282.14Z" fill="#4355F1"/>
<path d="M353.532 303.817C353.532 303.817 352.35 300.881 346.585 298.424C340.82 295.967 337.232 294.681 337.232 294.681C337.232 294.681 337.894 302.262 343.365 304.837C348.836 307.412 355.658 309.103 355.658 309.103L353.532 303.817Z" fill="#4355F1"/>
<path d="M356.435 329.146C356.435 329.146 355.895 326.027 350.773 322.417C345.651 318.806 342.412 316.797 342.412 316.797C342.412 316.797 341.471 324.348 346.281 328.013C351.091 331.677 357.407 334.76 357.407 334.76L356.435 329.146Z" fill="#4355F1"/>
<path d="M357.567 335.255C357.567 335.255 356.589 332.245 359.435 326.661C362.281 321.078 364.208 317.789 364.208 317.789C364.208 317.789 368.564 324.029 366.019 329.514C363.474 335 359.326 340.673 359.326 340.673L357.567 335.255Z" fill="#4355F1"/>
<path d="M366.307 360.413C366.307 360.413 366.668 357.268 371.576 353.372C376.484 349.475 379.603 347.284 379.603 347.284C379.603 347.284 380.974 354.769 376.38 358.702C371.787 362.635 365.657 366.073 365.657 366.073L366.307 360.413Z" fill="#4355F1"/>
<path d="M365.014 352.652C365.014 352.652 364.474 349.533 359.352 345.923C354.23 342.313 350.991 340.303 350.991 340.303C350.991 340.303 350.05 347.854 354.86 351.519C359.67 355.183 365.986 358.266 365.986 358.266L365.014 352.652Z" fill="#4355F1"/>
<path d="M364.946 369.605C364.946 369.605 365.214 366.451 361.173 361.661C357.132 356.871 354.508 354.107 354.508 354.107C354.508 354.107 351.685 361.174 355.41 365.937C359.135 370.7 364.465 375.282 364.465 375.282L364.946 369.605Z" fill="#4355F1"/>
<path d="M340.167 276.144C341 279.433 341.976 282.817 343.039 285.621C346.309 294.24 351.62 299.246 354.74 307.002C357.86 314.758 354.702 325.993 357.82 336.108C360.938 346.224 365.961 351.28 366.006 358.383C366.051 365.486 363.247 385.23 363.247 385.23" stroke="#263238" stroke-miterlimit="10" stroke-linecap="round" stroke-linejoin="round"/>
<path d="M342.297 284.205L336.966 281.408" stroke="#263238" stroke-miterlimit="10" stroke-linecap="round" stroke-linejoin="round"/>
<path d="M341.358 280.085L342.721 276.242" stroke="#263238" stroke-miterlimit="10" stroke-linecap="round" stroke-linejoin="round"/>
<path d="M354.415 306.678C354.415 306.678 349.964 304.405 345.404 302.152" stroke="#263238" stroke-miterlimit="10" stroke-linecap="round" stroke-linejoin="round"/>
<path d="M351.381 300.87C351.381 300.87 353.549 293.866 356.531 288.954" stroke="#263238" stroke-miterlimit="10" stroke-linecap="round" stroke-linejoin="round"/>
<path d="M357.048 333.61C357.048 333.61 352.942 328.122 346.671 323.797" stroke="#263238" stroke-miterlimit="10" stroke-linecap="round" stroke-linejoin="round"/>
<path d="M358.572 337.854C358.572 337.854 359.727 332.808 361.438 329.017C363.149 325.227 363.401 324.732 363.401 324.732" stroke="#263238" stroke-miterlimit="10" stroke-linecap="round" stroke-linejoin="round"/>
<path d="M365.764 363.772C365.764 363.772 369.297 359.441 371.496 357.82C373.695 356.2 375.219 354.583 375.219 354.583" stroke="#263238" stroke-miterlimit="10" stroke-linecap="round" stroke-linejoin="round"/>
<path d="M366.006 358.384C366.006 358.384 363.735 354.656 361.216 351.824C358.697 348.992 355.578 346.601 355.578 346.601" stroke="#263238" stroke-miterlimit="10" stroke-linecap="round" stroke-linejoin="round"/>
<path d="M364.464 375.283C364.464 375.283 364.279 371.468 362.088 368.579C359.897 365.69 357.317 361.853 356.267 360.345" stroke="#263238" stroke-miterlimit="10" stroke-linecap="round" stroke-linejoin="round"/>
<path d="M56.673 233.32L52.293 220.805L56.673 226.124L53.232 207.352L58.55 220.805L60.428 194.524L63.557 219.554L66.998 214.548V220.805L71.066 212.358L68.875 227.063L72.63 224.56L66.685 232.695L56.673 233.32Z" fill="#4355F1"/>
<path d="M70.4399 230.192H54.1699L57.0989 263.044H67.5109L70.4399 230.192Z" fill="#263238" stroke="#263238" stroke-miterlimit="10" stroke-linecap="round" stroke-linejoin="round"/>
<path d="M100.952 262.665H45.527V380.062H100.952V262.665Z" fill="white" stroke="#263238" stroke-miterlimit="10" stroke-linecap="round" stroke-linejoin="round"/>
<path d="M103.99 262.665H73.24V380.062H103.99V262.665Z" fill="white" stroke="#263238" stroke-miterlimit="10" stroke-linecap="round" stroke-linejoin="round"/>
<path d="M100.525 262.665H73.24V380.062H100.525V262.665Z" fill="#263238" stroke="#263238" stroke-miterlimit="10" stroke-linecap="round" stroke-linejoin="round"/>
<path d="M97.461 352.775H73.24V376.817H97.461V352.775Z" fill="#4355F1" stroke="#263238" stroke-miterlimit="10" stroke-linecap="round" stroke-linejoin="round"/>
<path d="M97.461 354.074H73.24V357.156H97.461V354.074Z" fill="white" stroke="#263238" stroke-miterlimit="10" stroke-linecap="round" stroke-linejoin="round"/>
<path d="M97.461 371.771H73.24V374.853H97.461V371.771Z" fill="white" stroke="#263238" stroke-miterlimit="10" stroke-linecap="round" stroke-linejoin="round"/>
<path d="M77.834 353.27V383.67" stroke="#263238" stroke-miterlimit="10" stroke-linecap="round" stroke-linejoin="round"/>
<path d="M86.28 353.27V383.67" stroke="#263238" stroke-miterlimit="10" stroke-linecap="round" stroke-linejoin="round"/>
<path d="M93.697 353.27V383.67" stroke="#263238" stroke-miterlimit="10" stroke-linecap="round" stroke-linejoin="round"/>
<path d="M97.461 267.029H73.24V302.379H97.461V267.029Z" fill="#4355F1" stroke="#263238" stroke-miterlimit="10" stroke-linecap="round" stroke-linejoin="round"/>
<path d="M97.461 268.506H73.24V272.008H97.461V268.506Z" fill="white" stroke="#263238" stroke-miterlimit="10" stroke-linecap="round" stroke-linejoin="round"/>
<path d="M97.461 291.167H73.24V294.669H97.461V291.167Z" fill="white" stroke="#263238" stroke-miterlimit="10" stroke-linecap="round" stroke-linejoin="round"/>
<path d="M77.834 267.591V302.135" stroke="#263238" stroke-miterlimit="10" stroke-linecap="round" stroke-linejoin="round"/>
<path d="M86.28 267.591V302.135" stroke="#263238" stroke-miterlimit="10" stroke-linecap="round" stroke-linejoin="round"/>
<path d="M93.697 267.591V302.135" stroke="#263238" stroke-miterlimit="10" stroke-linecap="round" stroke-linejoin="round"/>
<path d="M97.461 309.634H73.24V344.984H97.461V309.634Z" fill="#4355F1" stroke="#263238" stroke-miterlimit="10" stroke-linecap="round" stroke-linejoin="round"/>
<path d="M97.461 311.111H73.24V314.613H97.461V311.111Z" fill="white" stroke="#263238" stroke-miterlimit="10" stroke-linecap="round" stroke-linejoin="round"/>
<path d="M97.461 333.772H73.24V337.274H97.461V333.772Z" fill="white" stroke="#263238" stroke-miterlimit="10" stroke-linecap="round" stroke-linejoin="round"/>
<path d="M77.834 310.196V344.74" stroke="#263238" stroke-miterlimit="10" stroke-linecap="round" stroke-linejoin="round"/>
<path d="M86.28 310.196V344.74" stroke="#263238" stroke-miterlimit="10" stroke-linecap="round" stroke-linejoin="round"/>
<path d="M93.697 310.196V344.74" stroke="#263238" stroke-miterlimit="10" stroke-linecap="round" stroke-linejoin="round"/>
<path d="M100.953 301.891H73.24V305.91H100.953V301.891Z" fill="white" stroke="#263238" stroke-miterlimit="10" stroke-linecap="round" stroke-linejoin="round"/>
<path d="M100.953 344.763H73.24V348.782H100.953V344.763Z" fill="white" stroke="#263238" stroke-miterlimit="10" stroke-linecap="round" stroke-linejoin="round"/>
<path d="M100.953 262.665V380.062" stroke="#263238" stroke-miterlimit="10" stroke-linecap="round" stroke-linejoin="round"/>
<path d="M69.334 262.665V380.062H73.24V267.029H100.473V262.622L69.334 262.665Z" fill="white" stroke="#263238" stroke-miterlimit="10" stroke-linecap="round" stroke-linejoin="round"/>
<path d="M73.24 267.029V262.665" stroke="#263238" stroke-miterlimit="10" stroke-linecap="round" stroke-linejoin="round"/>
<path d="M100.743 208.736C97.828 203.133 96.606 199.106 96.606 198.178C96.606 196.344 100.642 195.243 100.642 195.243C106.879 191.941 136.231 196.711 149.439 198.912C162.647 201.113 171.82 201.113 171.82 201.113C171.82 201.113 173.655 199.645 175.856 197.811C178.057 195.977 188.331 183.869 192.366 182.768C196.402 181.667 200.071 184.236 200.071 184.236C200.071 184.236 206.675 188.272 205.574 189.006C204.473 189.74 188.33 203.682 184.294 206.25C180.258 208.818 171.819 207.718 164.482 209.185C158.165 210.448 132.562 212.009 126.692 212.487C126.692 212.487 120.822 214.321 113.484 211.386" fill="white"/>
<mask id="mask0_23_348" style="mask-type:luminance" maskUnits="userSpaceOnUse" x="96" y="182" width="110" height="32">
<path d="M100.743 208.736C97.828 203.133 96.606 199.106 96.606 198.178C96.606 196.344 100.642 195.243 100.642 195.243C106.879 191.941 136.231 196.711 149.439 198.912C162.647 201.113 171.82 201.113 171.82 201.113C171.82 201.113 173.655 199.645 175.856 197.811C178.057 195.977 188.331 183.869 192.366 182.768C196.402 181.667 200.071 184.236 200.071 184.236C200.071 184.236 206.675 188.272 205.574 189.006C204.473 189.74 188.33 203.682 184.294 206.25C180.258 208.818 171.819 207.718 164.482 209.185C158.165 210.448 132.562 212.009 126.692 212.487C126.692 212.487 120.822 214.321 113.484 211.386" fill="white"/>
</mask>
<g mask="url(#mask0_23_348)">
<path d="M200.071 184.237C200.071 184.237 196.402 181.669 192.366 182.769C188.33 183.87 178.057 195.977 175.856 197.812C173.655 199.646 171.82 201.114 171.82 201.114C171.82 201.114 162.648 201.114 149.439 198.913C136.231 196.712 106.879 191.942 100.642 195.244C100.642 195.244 96.606 196.345 96.606 198.179C96.606 198.599 96.86 199.66 97.405 201.21C97.752 201.335 97.953 201.407 97.953 201.407C97.953 201.407 105.283 200.635 121.1 201.021C136.917 201.407 173.514 203.567 175.855 204.416C176.912 204.799 183.948 203.195 191.805 200.437C197.778 195.548 204.857 189.484 205.573 189.006C206.675 188.273 200.071 184.237 200.071 184.237Z" fill="#4355F1"/>
</g>
<mask id="mask1_23_348" style="mask-type:luminance" maskUnits="userSpaceOnUse" x="96" y="182" width="110" height="32">
<path d="M100.743 208.736C97.828 203.133 96.606 199.106 96.606 198.178C96.606 196.344 100.642 195.243 100.642 195.243C106.879 191.941 136.231 196.711 149.439 198.912C162.647 201.113 171.82 201.113 171.82 201.113C171.82 201.113 173.655 199.645 175.856 197.811C178.057 195.977 188.331 183.869 192.366 182.768C196.402 181.667 200.071 184.236 200.071 184.236C200.071 184.236 206.675 188.272 205.574 189.006C204.473 189.74 188.33 203.682 184.294 206.25C180.258 208.818 171.819 207.718 164.482 209.185C158.165 210.448 132.562 212.009 126.692 212.487C126.692 212.487 120.822 214.321 113.484 211.386" fill="white"/>
</mask>
<g mask="url(#mask1_23_348)">
<path opacity="0.5" d="M200.071 184.237C200.071 184.237 196.402 181.669 192.366 182.769C188.33 183.87 178.057 195.977 175.856 197.812C173.655 199.646 171.82 201.114 171.82 201.114C171.82 201.114 162.648 201.114 149.439 198.913C136.231 196.712 106.879 191.942 100.642 195.244C100.642 195.244 96.606 196.345 96.606 198.179C96.606 198.599 96.86 199.66 97.405 201.21C97.752 201.335 97.953 201.407 97.953 201.407C97.953 201.407 105.283 200.635 121.1 201.021C136.917 201.407 173.514 203.567 175.855 204.416C176.912 204.799 183.948 203.195 191.805 200.437C197.778 195.548 204.857 189.484 205.573 189.006C206.675 188.273 200.071 184.237 200.071 184.237Z" fill="white"/>
</g>
<path d="M100.743 208.736C97.828 203.133 96.606 199.106 96.606 198.178C96.606 196.344 100.642 195.243 100.642 195.243C106.879 191.941 136.231 196.711 149.439 198.912C162.647 201.113 171.82 201.113 171.82 201.113C171.82 201.113 173.655 199.645 175.856 197.811C178.057 195.977 188.331 183.869 192.366 182.768C196.402 181.667 200.071 184.236 200.071 184.236C200.071 184.236 206.675 188.272 205.574 189.006C204.473 189.74 188.33 203.682 184.294 206.25C180.258 208.818 171.819 207.718 164.482 209.185C158.165 210.448 132.562 212.009 126.692 212.487C126.692 212.487 120.822 214.321 113.484 211.386" stroke="#263238" stroke-miterlimit="10" stroke-linecap="round" stroke-linejoin="round"/>
<path d="M245.651 241.355C246.997 238.786 249.668 237.187 252.569 237.187H319.272C319.272 237.187 324.094 237.187 322.647 246.348C321.201 255.509 301.432 311.439 296.61 328.315C291.788 345.19 290.824 380.87 290.824 380.87H210.786C210.787 380.871 217.199 295.673 245.651 241.355Z" fill="white"/>
<mask id="mask2_23_348" style="mask-type:luminance" maskUnits="userSpaceOnUse" x="210" y="237" width="113" height="144">
<path d="M245.651 241.355C246.997 238.786 249.668 237.187 252.569 237.187H319.272C319.272 237.187 324.094 237.187 322.647 246.348C321.201 255.509 301.432 311.439 296.61 328.315C291.788 345.19 290.824 380.87 290.824 380.87H210.786C210.787 380.871 217.199 295.673 245.651 241.355Z" fill="white"/>
</mask>
<g mask="url(#mask2_23_348)">
<path opacity="0.16" d="M275.694 237.188H252.569C249.668 237.188 246.997 238.786 245.651 241.356C217.2 295.673 210.787 380.871 210.787 380.871H246.674L255.519 347.262L292.422 354.871C292.683 352.052 292.984 349.182 293.329 346.355L292.525 337.315C292.525 337.315 284.965 329.357 282.577 327.367C280.19 325.377 281.781 321.796 281.383 306.277C280.985 290.758 267.058 279.616 261.885 270.066C256.712 260.516 264.671 254.547 271.833 244.997C274.385 241.593 275.417 239.053 275.694 237.188Z" fill="black"/>
</g>
<path d="M245.651 241.355C246.997 238.786 249.668 237.187 252.569 237.187H319.272C319.272 237.187 324.094 237.187 322.647 246.348C321.201 255.509 301.432 311.439 296.61 328.315C291.788 345.19 290.824 380.87 290.824 380.87H210.786C210.787 380.871 217.199 295.673 245.651 241.355Z" stroke="#263238" stroke-miterlimit="10" stroke-linecap="round" stroke-linejoin="round"/>
<path d="M307.7 253.099C300.956 268.834 286.67 331.096 284.378 380.871H290.824C290.824 380.871 291.788 345.191 296.61 328.316C301.432 311.44 321.2 255.51 322.647 246.349C324.093 237.188 319.272 237.188 319.272 237.188C319.272 237.188 313.106 240.486 307.7 253.099Z" fill="#263238" stroke="#263238" stroke-miterlimit="10" stroke-linecap="round" stroke-linejoin="round"/>
<path d="M190.532 221.66C190.532 221.66 179.892 215.423 175.856 204.416C171.82 193.409 207.409 175.798 222.819 174.697C238.229 173.596 242.632 177.632 251.804 193.409C260.976 209.186 267.214 230.833 262.444 241.473C257.674 252.113 249.603 254.681 255.473 263.487C261.343 272.293 277.854 297.242 276.753 308.982C275.652 320.723 264.279 330.996 247.768 332.097C231.258 333.198 209.244 323.291 190.899 307.148C172.554 291.005 177.324 267.156 183.928 259.451C190.532 251.746 200.438 248.811 201.172 241.106C201.905 233.401 190.532 221.66 190.532 221.66Z" fill="#263238" stroke="#263238" stroke-miterlimit="10" stroke-linecap="round" stroke-linejoin="round"/>
<path d="M235.876 204.249C241.531 214.769 248.599 228.86 250.805 237.371C254.668 252.269 234.803 261.65 240.321 268.823" stroke="white" stroke-miterlimit="10" stroke-linecap="round" stroke-linejoin="round"/>
<path d="M228.182 190.468C228.182 190.468 230.379 194.216 233.425 199.744" stroke="white" stroke-miterlimit="10" stroke-linecap="round" stroke-linejoin="round"/>
<path d="M257.82 216.938C258.467 218.946 258.908 220.982 259.083 223.024" stroke="white" stroke-miterlimit="10" stroke-linecap="round" stroke-linejoin="round"/>
<path d="M232.044 184.95C232.044 184.95 249.418 197.792 256.355 213.163" stroke="white" stroke-miterlimit="10" stroke-linecap="round" stroke-linejoin="round"/>
<path d="M207.876 194.626C195.465 198.114 177.622 203.759 179.073 207.022" stroke="white" stroke-miterlimit="10" stroke-linecap="round" stroke-linejoin="round"/>
<path d="M219.353 191.571C219.353 191.571 216.697 192.226 212.749 193.287" stroke="white" stroke-miterlimit="10" stroke-linecap="round" stroke-linejoin="round"/>
<path d="M203.991 185.095C208.548 183.592 216.055 181.871 225.975 182.191" stroke="white" stroke-miterlimit="10" stroke-linecap="round" stroke-linejoin="round"/>
<path d="M198.937 187.157C198.937 187.157 200.137 186.49 202.421 185.643" stroke="white" stroke-miterlimit="10" stroke-linecap="round" stroke-linejoin="round"/>
<path d="M96.606 198.179C96.606 198.237 96.6109 198.307 96.6199 198.388C96.6109 198.307 96.606 198.237 96.606 198.179ZM100.743 208.736C98.377 204.187 97.126 200.677 96.739 199.022C97.125 200.676 98.376 204.186 100.743 208.736ZM96.629 198.446C96.638 198.514 96.648 198.584 96.664 198.667C96.648 198.585 96.639 198.515 96.629 198.446ZM96.677 198.729C96.694 198.819 96.714 198.912 96.738 199.017C96.713 198.912 96.694 198.819 96.677 198.729ZM100.743 208.736C103.591 214.212 108.055 221.192 114.583 228.264C127.791 242.573 165.949 279.997 169.618 282.565C173.287 285.133 172.186 292.471 169.618 299.809C167.05 307.147 157.51 317.787 157.877 329.528C158.244 341.269 161.913 359.247 161.546 362.916C161.179 366.585 152.007 379.059 152.007 379.059H246.667C246.667 379.059 234.875 364.071 234.875 358.935C234.875 353.798 251.07 288.069 251.804 283.299C252.538 278.529 249.603 275.227 243.732 274.86C237.862 274.493 215.481 269.723 214.38 266.054C213.279 262.385 220.25 248.443 220.25 248.443L198.236 249.544C198.236 249.544 197.135 259.083 195.668 260.918C194.2 262.753 191.999 259.083 186.863 256.515C181.726 253.947 171.82 251.745 168.151 248.81C164.482 245.875 129.26 212.854 129.26 212.854" fill="white"/>
<mask id="mask3_23_348" style="mask-type:luminance" maskUnits="userSpaceOnUse" x="96" y="198" width="156" height="182">
<path d="M96.606 198.179C96.606 198.237 96.6109 198.307 96.6199 198.388C96.6109 198.307 96.606 198.237 96.606 198.179ZM100.743 208.736C98.377 204.187 97.126 200.677 96.739 199.022C97.125 200.676 98.376 204.186 100.743 208.736ZM96.629 198.446C96.638 198.514 96.648 198.584 96.664 198.667C96.648 198.585 96.639 198.515 96.629 198.446ZM96.677 198.729C96.694 198.819 96.714 198.912 96.738 199.017C96.713 198.912 96.694 198.819 96.677 198.729ZM100.743 208.736C103.591 214.212 108.055 221.192 114.583 228.264C127.791 242.573 165.949 279.997 169.618 282.565C173.287 285.133 172.186 292.471 169.618 299.809C167.05 307.147 157.51 317.787 157.877 329.528C158.244 341.269 161.913 359.247 161.546 362.916C161.179 366.585 152.007 379.059 152.007 379.059H246.667C246.667 379.059 234.875 364.071 234.875 358.935C234.875 353.798 251.07 288.069 251.804 283.299C252.538 278.529 249.603 275.227 243.732 274.86C237.862 274.493 215.481 269.723 214.38 266.054C213.279 262.385 220.25 248.443 220.25 248.443L198.236 249.544C198.236 249.544 197.135 259.083 195.668 260.918C194.2 262.753 191.999 259.083 186.863 256.515C181.726 253.947 171.82 251.745 168.151 248.81C164.482 245.875 129.26 212.854 129.26 212.854" fill="white"/>
</mask>
<g mask="url(#mask3_23_348)">
<path d="M173.767 251.645C175.602 254.844 177.426 257.732 177.426 257.732C177.426 257.732 183.599 261.204 185.142 261.204C186.685 261.204 195.944 266.219 195.944 266.219C195.944 266.219 203.66 264.29 200.959 257.732C200.484 256.578 199.33 254.976 197.741 253.11C197.282 256.022 196.54 259.829 195.668 260.919C194.2 262.754 191.999 259.084 186.863 256.516C183.507 254.838 178.125 253.316 173.767 251.645Z" fill="#4355F1"/>
<path d="M154.932 236.791C143.598 226.296 129.26 212.855 129.26 212.855L120.921 211.651L119.944 212.209C119.944 212.209 143.477 233.042 148.492 235.356C151.6 236.791 153.226 236.596 154.932 236.791Z" fill="#4355F1"/>
<path d="M166.803 247.652C166.532 247.413 166.232 247.145 165.903 246.85C166.359 247.606 166.623 248.087 166.623 248.087C166.623 248.087 166.688 247.916 166.803 247.652Z" fill="#4355F1"/>
</g>
<mask id="mask4_23_348" style="mask-type:luminance" maskUnits="userSpaceOnUse" x="96" y="198" width="156" height="182">
<path d="M96.606 198.179C96.606 198.237 96.6109 198.307 96.6199 198.388C96.6109 198.307 96.606 198.237 96.606 198.179ZM100.743 208.736C98.377 204.187 97.126 200.677 96.739 199.022C97.125 200.676 98.376 204.186 100.743 208.736ZM96.629 198.446C96.638 198.514 96.648 198.584 96.664 198.667C96.648 198.585 96.639 198.515 96.629 198.446ZM96.677 198.729C96.694 198.819 96.714 198.912 96.738 199.017C96.713 198.912 96.694 198.819 96.677 198.729ZM100.743 208.736C103.591 214.212 108.055 221.192 114.583 228.264C127.791 242.573 165.949 279.997 169.618 282.565C173.287 285.133 172.186 292.471 169.618 299.809C167.05 307.147 157.51 317.787 157.877 329.528C158.244 341.269 161.913 359.247 161.546 362.916C161.179 366.585 152.007 379.059 152.007 379.059H246.667C246.667 379.059 234.875 364.071 234.875 358.935C234.875 353.798 251.07 288.069 251.804 283.299C252.538 278.529 249.603 275.227 243.732 274.86C237.862 274.493 215.481 269.723 214.38 266.054C213.279 262.385 220.25 248.443 220.25 248.443L198.236 249.544C198.236 249.544 197.135 259.083 195.668 260.918C194.2 262.753 191.999 259.083 186.863 256.515C181.726 253.947 171.82 251.745 168.151 248.81C164.482 245.875 129.26 212.854 129.26 212.854" fill="white"/>
</mask>
<g mask="url(#mask4_23_348)">
<g opacity="0.5">
<path d="M173.767 251.645C175.602 254.844 177.426 257.732 177.426 257.732C177.426 257.732 183.599 261.204 185.142 261.204C186.685 261.204 195.944 266.219 195.944 266.219C195.944 266.219 203.66 264.29 200.959 257.732C200.484 256.578 199.33 254.976 197.741 253.11C197.282 256.022 196.54 259.829 195.668 260.919C194.2 262.754 191.999 259.084 186.863 256.516C183.507 254.838 178.125 253.316 173.767 251.645Z" fill="white"/>
<path d="M154.932 236.791C143.598 226.296 129.26 212.855 129.26 212.855L120.921 211.651L119.944 212.209C119.944 212.209 143.477 233.042 148.492 235.356C151.6 236.791 153.226 236.596 154.932 236.791Z" fill="white"/>
<path d="M166.803 247.652C166.532 247.413 166.232 247.145 165.903 246.85C166.359 247.606 166.623 248.087 166.623 248.087C166.623 248.087 166.688 247.916 166.803 247.652Z" fill="white"/>
</g>
</g>
<path d="M100.743 208.736C103.591 214.212 108.055 221.192 114.583 228.264C127.791 242.573 165.949 279.997 169.618 282.565C173.287 285.133 172.186 292.471 169.618 299.809C167.05 307.147 157.51 317.787 157.877 329.528C158.244 341.269 161.913 359.247 161.546 362.916C161.179 366.585 152.007 379.059 152.007 379.059H246.667C246.667 379.059 234.875 364.071 234.875 358.935C234.875 353.798 251.07 288.069 251.804 283.299C252.538 278.529 249.603 275.227 243.732 274.86C237.862 274.493 215.481 269.723 214.38 266.054C213.279 262.385 220.25 248.443 220.25 248.443L198.236 249.544C198.236 249.544 197.135 259.083 195.668 260.918C194.2 262.753 191.999 259.083 186.863 256.515C181.726 253.947 171.82 251.745 168.151 248.81C164.482 245.875 129.26 212.854 129.26 212.854M96.606 198.179C96.606 198.237 96.6109 198.307 96.6199 198.388C96.6109 198.307 96.606 198.237 96.606 198.179ZM100.743 208.736C98.377 204.187 97.126 200.677 96.739 199.022C97.125 200.676 98.376 204.186 100.743 208.736ZM96.629 198.446C96.638 198.514 96.648 198.584 96.664 198.667C96.648 198.585 96.639 198.515 96.629 198.446ZM96.677 198.729C96.694 198.819 96.714 198.912 96.738 199.017C96.713 198.912 96.694 198.819 96.677 198.729Z" stroke="#263238" stroke-miterlimit="10" stroke-linecap="round" stroke-linejoin="round"/>
<path d="M129.26 212.855C129.26 212.855 117.545 213.074 110.998 207.683" stroke="#263238" stroke-miterlimit="10" stroke-linecap="round" stroke-linejoin="round"/>
<path d="M214.38 266.055C213.279 262.386 220.25 248.444 220.25 248.444L198.236 249.545C198.236 249.545 197.135 259.084 195.668 260.919C194.2 262.754 191.999 259.084 186.863 256.516C186.472 256.32 186.045 256.127 185.603 255.936L184.268 276.854C184.268 276.854 186.197 297.105 209.34 293.247C218.709 291.685 228.71 283.328 237.296 273.933C228.465 272.298 215.22 268.857 214.38 266.055Z" fill="white"/>
<mask id="mask5_23_348" style="mask-type:luminance" maskUnits="userSpaceOnUse" x="184" y="248" width="54" height="46">
<path d="M214.38 266.055C213.279 262.386 220.25 248.444 220.25 248.444L198.236 249.545C198.236 249.545 197.135 259.084 195.668 260.919C194.2 262.754 191.999 259.084 186.863 256.516C186.472 256.32 186.045 256.127 185.603 255.936L184.268 276.854C184.268 276.854 186.197 297.105 209.34 293.247C218.709 291.685 228.71 283.328 237.296 273.933C228.465 272.298 215.22 268.857 214.38 266.055Z" fill="white"/>
</mask>
<g mask="url(#mask5_23_348)">
<path d="M213.758 251.208C213.758 251.208 212.426 258.666 211.361 266.923C210.296 275.18 209.497 281.306 209.497 281.306L214.38 266.055L219.884 249.877C219.884 249.877 214.557 249.877 213.758 251.208Z" fill="#4355F1"/>
</g>
<mask id="mask6_23_348" style="mask-type:luminance" maskUnits="userSpaceOnUse" x="184" y="248" width="54" height="46">
<path d="M214.38 266.055C213.279 262.386 220.25 248.444 220.25 248.444L198.236 249.545C198.236 249.545 197.135 259.084 195.668 260.919C194.2 262.754 191.999 259.084 186.863 256.516C186.472 256.32 186.045 256.127 185.603 255.936L184.268 276.854C184.268 276.854 186.197 297.105 209.34 293.247C218.709 291.685 228.71 283.328 237.296 273.933C228.465 272.298 215.22 268.857 214.38 266.055Z" fill="white"/>
</mask>
<g mask="url(#mask6_23_348)">
<path opacity="0.5" d="M213.758 251.208C213.758 251.208 212.426 258.666 211.361 266.923C210.296 275.18 209.497 281.306 209.497 281.306L214.38 266.055L219.884 249.877C219.884 249.877 214.557 249.877 213.758 251.208Z" fill="white"/>
</g>
<path d="M214.38 266.055C213.279 262.386 220.25 248.444 220.25 248.444L198.236 249.545C198.236 249.545 197.135 259.084 195.668 260.919C194.2 262.754 191.999 259.084 186.863 256.516C186.472 256.32 186.045 256.127 185.603 255.936L184.268 276.854C184.268 276.854 186.197 297.105 209.34 293.247C218.709 291.685 228.71 283.328 237.296 273.933C228.465 272.298 215.22 268.857 214.38 266.055Z" stroke="#263238" stroke-miterlimit="10" stroke-linecap="round" stroke-linejoin="round"/>
<path d="M195.668 260.918C194.2 262.753 191.999 259.083 186.863 256.515C183.616 254.891 178.465 253.414 174.186 251.805C172.975 248.939 171.378 245.195 170.352 242.939C168.517 238.903 165.582 241.472 165.582 241.472C165.582 241.472 163.747 239.637 161.913 235.602C160.079 231.566 157.143 231.933 153.107 231.199C149.071 230.465 140.633 222.76 140.633 222.76C140.633 222.76 136.684 219.802 135.046 218.271C133.151 222.014 128.596 228.593 118.761 232.698C134.445 249.09 166.281 280.23 169.617 282.565C173.286 285.133 172.185 292.471 169.617 299.809C167.049 307.147 157.509 317.787 157.876 329.528C158.243 341.269 161.912 359.247 161.545 362.916C161.218 366.186 153.9 376.445 152.313 378.637L156.042 379.059H175.455C175.35 369.222 175.355 329.058 182.092 313.017C189.798 294.673 195.668 260.918 195.668 260.918Z" fill="#4355F1"/>
<mask id="mask7_23_348" style="mask-type:luminance" maskUnits="userSpaceOnUse" x="118" y="218" width="78" height="162">
<path d="M195.668 260.918C194.2 262.753 191.999 259.083 186.863 256.515C183.616 254.891 178.465 253.414 174.186 251.805C172.975 248.939 171.378 245.195 170.352 242.939C168.517 238.903 165.582 241.472 165.582 241.472C165.582 241.472 163.747 239.637 161.913 235.602C160.079 231.566 157.143 231.933 153.107 231.199C149.071 230.465 140.633 222.76 140.633 222.76C140.633 222.76 136.684 219.802 135.046 218.271C133.151 222.014 128.596 228.593 118.761 232.698C134.445 249.09 166.281 280.23 169.617 282.565C173.286 285.133 172.185 292.471 169.617 299.809C167.049 307.147 157.509 317.787 157.876 329.528C158.243 341.269 161.912 359.247 161.545 362.916C161.218 366.186 153.9 376.445 152.313 378.637L156.042 379.059H175.455C175.35 369.222 175.355 329.058 182.092 313.017C189.798 294.673 195.668 260.918 195.668 260.918Z" fill="white"/>
</mask>
<g mask="url(#mask7_23_348)">
<path opacity="0.16" d="M186.863 256.516C183.616 254.892 178.465 253.415 174.186 251.806C172.975 248.94 171.378 245.196 170.352 242.94C168.517 238.904 165.582 241.473 165.582 241.473C165.582 241.473 163.747 239.638 161.913 235.603C160.079 231.567 157.143 231.934 153.107 231.2C149.071 230.466 140.633 222.761 140.633 222.761C140.633 222.761 136.684 219.803 135.046 218.272C134.414 219.519 133.478 221.084 132.159 222.765C138.717 228.307 145.96 234.188 148.491 235.356C153.506 237.671 154.664 235.742 158.522 238.057C162.38 240.372 166.623 248.087 166.623 248.087C166.623 248.087 168.938 241.914 170.867 246.158C172.796 250.402 177.425 257.732 177.425 257.732C177.425 257.732 183.598 261.204 185.141 261.204C186.35 261.204 192.281 264.275 194.798 265.608C195.36 262.684 195.668 260.918 195.668 260.918C194.201 262.753 191.999 259.084 186.863 256.516Z" fill="black"/>
</g>
<path d="M195.668 260.918C194.2 262.753 191.999 259.083 186.863 256.515C183.616 254.891 178.465 253.414 174.186 251.805C172.975 248.939 171.378 245.195 170.352 242.939C168.517 238.903 165.582 241.472 165.582 241.472C165.582 241.472 163.747 239.637 161.913 235.602C160.079 231.566 157.143 231.933 153.107 231.199C149.071 230.465 140.633 222.76 140.633 222.76C140.633 222.76 136.684 219.802 135.046 218.271C133.151 222.014 128.596 228.593 118.761 232.698C134.445 249.09 166.281 280.23 169.617 282.565C173.286 285.133 172.185 292.471 169.617 299.809C167.049 307.147 157.509 317.787 157.876 329.528C158.243 341.269 161.912 359.247 161.545 362.916C161.218 366.186 153.9 376.445 152.313 378.637L156.042 379.059H175.455C175.35 369.222 175.355 329.058 182.092 313.017C189.798 294.673 195.668 260.918 195.668 260.918Z" stroke="#263238" stroke-miterlimit="10" stroke-linecap="round" stroke-linejoin="round"/>
<path d="M195.93 259.644C195.93 259.644 191.369 258.241 188.562 260.696C185.755 263.152 181.545 275.783 179.089 289.466C176.633 303.149 182.093 313.017 182.093 313.017C182.093 313.017 187.861 297.886 189.615 290.518C191.369 283.151 195.93 259.644 195.93 259.644Z" fill="#4355F1"/>
<mask id="mask8_23_348" style="mask-type:luminance" maskUnits="userSpaceOnUse" x="178" y="259" width="18" height="55">
<path d="M195.93 259.644C195.93 259.644 191.369 258.241 188.562 260.696C185.755 263.152 181.545 275.783 179.089 289.466C176.633 303.149 182.093 313.017 182.093 313.017C182.093 313.017 187.861 297.886 189.615 290.518C191.369 283.151 195.93 259.644 195.93 259.644Z" fill="white"/>
</mask>
<g mask="url(#mask8_23_348)">
<path opacity="0.16" d="M187.18 261.868C187.18 261.868 190.475 261.073 191.838 261.527C193.201 261.981 195.019 263.459 195.019 263.459L195.929 259.644C195.929 259.644 193.769 258.46 191.497 258.914C189.225 259.369 187.18 261.868 187.18 261.868Z" fill="black"/>
</g>
<path d="M195.93 259.644C195.93 259.644 191.369 258.241 188.562 260.696C185.755 263.152 181.545 275.783 179.089 289.466C176.633 303.149 182.093 313.017 182.093 313.017C182.093 313.017 187.861 297.886 189.615 290.518C191.369 283.151 195.93 259.644 195.93 259.644Z" stroke="#263238" stroke-miterlimit="10" stroke-linecap="round" stroke-linejoin="round"/>
<path d="M165.216 260.838L171.086 284.686L157.878 254.601" stroke="#263238" stroke-miterlimit="10" stroke-linecap="round" stroke-linejoin="round"/>
<path d="M203.893 379.059H246.667C246.667 379.059 234.875 364.071 234.875 358.935C234.875 353.798 251.07 288.069 251.804 283.299C252.538 278.529 249.603 275.227 243.732 274.86C237.862 274.493 215.481 269.723 214.38 266.054C214.38 266.054 205.941 295.773 203.006 315.952C200.489 333.257 203.098 369.175 203.893 379.059Z" fill="#4355F1"/>
<mask id="mask9_23_348" style="mask-type:luminance" maskUnits="userSpaceOnUse" x="201" y="266" width="51" height="114">
<path d="M203.893 379.059H246.667C246.667 379.059 234.875 364.071 234.875 358.935C234.875 353.798 251.07 288.069 251.804 283.299C252.538 278.529 249.603 275.227 243.732 274.86C237.862 274.493 215.481 269.723 214.38 266.054C214.38 266.054 205.941 295.773 203.006 315.952C200.489 333.257 203.098 369.175 203.893 379.059Z" fill="white"/>
</mask>
<g mask="url(#mask9_23_348)">
<path opacity="0.16" d="M243.732 274.86C238.921 274.559 223.028 271.301 216.84 268.116L219.085 273.315C219.085 273.315 224.678 276.511 232.136 277.843C239.594 279.175 246.519 278.908 251.047 285.567C251.121 285.676 251.195 285.79 251.269 285.902C251.552 284.62 251.738 283.718 251.803 283.299C252.537 278.529 249.602 275.227 243.732 274.86Z" fill="#4355F1"/>
</g>
<path d="M203.893 379.059H246.667C246.667 379.059 234.875 364.071 234.875 358.935C234.875 353.798 251.07 288.069 251.804 283.299C252.538 278.529 249.603 275.227 243.732 274.86C237.862 274.493 215.481 269.723 214.38 266.054C214.38 266.054 205.941 295.773 203.006 315.952C200.489 333.257 203.098 369.175 203.893 379.059Z" stroke="#4355F1" stroke-miterlimit="10" stroke-linecap="round" stroke-linejoin="round"/>
<path d="M214.38 266.055C214.38 266.055 203.065 302.091 203.006 315.953C203.006 315.953 219.086 296.483 221.192 282.8C223.297 269.117 214.38 266.055 214.38 266.055Z" fill="#4355F1"/>
<mask id="mask10_23_348" style="mask-type:luminance" maskUnits="userSpaceOnUse" x="203" y="266" width="19" height="50">
<path d="M214.38 266.055C214.38 266.055 203.065 302.091 203.006 315.953C203.006 315.953 219.086 296.483 221.192 282.8C223.297 269.117 214.38 266.055 214.38 266.055Z" fill="white"/>
</mask>
<g mask="url(#mask10_23_348)">
<path opacity="0.16" d="M212.426 270.652C212.426 270.652 217.487 270.119 221.215 274.914C221.215 274.914 218.996 268.383 214.379 266.055L212.426 270.652Z" fill="black"/>
</g>
<path d="M214.38 266.055C214.38 266.055 203.065 302.091 203.006 315.953C203.006 315.953 219.086 296.483 221.192 282.8C223.297 269.117 214.38 266.055 214.38 266.055Z" stroke="#263238" stroke-miterlimit="10" stroke-linecap="round" stroke-linejoin="round"/>
<path d="M335.235 372.287C335.235 372.287 343.522 372.628 348.949 373.411C354.375 374.193 359.866 374.277 359.866 374.277C359.866 374.277 356.899 368.223 353.673 366.515C350.447 364.808 344.667 361.737 339.811 362.417C334.955 363.097 328.021 367.956 328.578 369.559C329.135 371.16 331.753 371.825 335.235 372.287Z" fill="white"/>
<mask id="mask11_23_348" style="mask-type:luminance" maskUnits="userSpaceOnUse" x="328" y="362" width="32" height="13">
<path d="M335.235 372.287C335.235 372.287 343.522 372.628 348.949 373.411C354.375 374.193 359.866 374.277 359.866 374.277C359.866 374.277 356.899 368.223 353.673 366.515C350.447 364.808 344.667 361.737 339.811 362.417C334.955 363.097 328.021 367.956 328.578 369.559C329.135 371.16 331.753 371.825 335.235 372.287Z" fill="white"/>
</mask>
<g mask="url(#mask11_23_348)">
<path d="M335.235 372.287C335.235 372.287 343.522 372.628 348.949 373.411C354.375 374.193 359.866 374.277 359.866 374.277C359.866 374.277 356.899 368.223 353.673 366.515C350.447 364.808 344.667 361.737 339.811 362.417C334.955 363.097 328.021 367.956 328.578 369.559C329.135 371.16 331.753 371.825 335.235 372.287Z" fill="#4355F1"/>
</g>
<mask id="mask12_23_348" style="mask-type:luminance" maskUnits="userSpaceOnUse" x="328" y="362" width="32" height="13">
<path d="M335.235 372.287C335.235 372.287 343.522 372.628 348.949 373.411C354.375 374.193 359.866 374.277 359.866 374.277C359.866 374.277 356.899 368.223 353.673 366.515C350.447 364.808 344.667 361.737 339.811 362.417C334.955 363.097 328.021 367.956 328.578 369.559C329.135 371.16 331.753 371.825 335.235 372.287Z" fill="white"/>
</mask>
<g mask="url(#mask12_23_348)">
<path opacity="0.5" d="M335.235 372.287C335.235 372.287 343.522 372.628 348.949 373.411C354.375 374.193 359.866 374.277 359.866 374.277C359.866 374.277 356.899 368.223 353.673 366.515C350.447 364.808 344.667 361.737 339.811 362.417C334.955 363.097 328.021 367.956 328.578 369.559C329.135 371.16 331.753 371.825 335.235 372.287Z" fill="white"/>
</g>
<path d="M335.235 372.287C335.235 372.287 343.522 372.628 348.949 373.411C354.375 374.193 359.866 374.277 359.866 374.277C359.866 374.277 356.899 368.223 353.673 366.515C350.447 364.808 344.667 361.737 339.811 362.417C334.955 363.097 328.021 367.956 328.578 369.559C329.135 371.16 331.753 371.825 335.235 372.287Z" stroke="#263238" stroke-miterlimit="10" stroke-linecap="round" stroke-linejoin="round"/>
<path d="M348.959 369.814C348.959 369.814 355.526 366.402 357.174 366.445C358.821 366.487 369.714 373.873 369.172 375.053C368.63 376.233 366.56 376.718 365.729 376.328C364.523 375.763 357.185 372.641 357.185 372.641L352.382 373.768L348.959 369.814Z" fill="white"/>
<mask id="mask13_23_348" style="mask-type:luminance" maskUnits="userSpaceOnUse" x="348" y="366" width="22" height="11">
<path d="M348.959 369.814C348.959 369.814 355.526 366.402 357.174 366.445C358.821 366.487 369.714 373.873 369.172 375.053C368.63 376.233 366.56 376.718 365.729 376.328C364.523 375.763 357.185 372.641 357.185 372.641L352.382 373.768L348.959 369.814Z" fill="white"/>
</mask>
<g mask="url(#mask13_23_348)">
<path d="M348.959 369.814C348.959 369.814 355.526 366.402 357.174 366.445C358.821 366.487 369.714 373.873 369.172 375.053C368.63 376.233 366.048 377.189 365.729 376.328C365.41 375.467 357.185 372.641 357.185 372.641L352.382 373.768L348.959 369.814Z" fill="#4355F1"/>
</g>
<mask id="mask14_23_348" style="mask-type:luminance" maskUnits="userSpaceOnUse" x="348" y="366" width="22" height="11">
<path d="M348.959 369.814C348.959 369.814 355.526 366.402 357.174 366.445C358.821 366.487 369.714 373.873 369.172 375.053C368.63 376.233 366.56 376.718 365.729 376.328C364.523 375.763 357.185 372.641 357.185 372.641L352.382 373.768L348.959 369.814Z" fill="white"/>
</mask>
<g mask="url(#mask14_23_348)">
<path opacity="0.5" d="M348.959 369.814C348.959 369.814 355.526 366.402 357.174 366.445C358.821 366.487 369.714 373.873 369.172 375.053C368.63 376.233 366.048 377.189 365.729 376.328C365.41 375.467 357.185 372.641 357.185 372.641L352.382 373.768L348.959 369.814Z" fill="white"/>
</g>
<path d="M348.959 369.814C348.959 369.814 355.526 366.402 357.174 366.445C358.821 366.487 369.714 373.873 369.172 375.053C368.63 376.233 366.56 376.718 365.729 376.328C364.523 375.763 357.185 372.641 357.185 372.641L352.382 373.768L348.959 369.814Z" stroke="#263238" stroke-miterlimit="10" stroke-linecap="round" stroke-linejoin="round"/>
<path d="M344.308 364.199C344.308 364.199 353.072 363.915 354.811 364.803C356.55 365.691 364.41 379.159 363.227 380.143C362.044 381.126 358.795 380.827 358.895 379.743C358.995 378.66 351.652 371.429 351.652 371.429L345.942 370.174L344.308 364.199Z" fill="white"/>
<mask id="mask15_23_348" style="mask-type:luminance" maskUnits="userSpaceOnUse" x="344" y="364" width="20" height="17">
<path d="M344.308 364.199C344.308 364.199 353.072 363.915 354.811 364.803C356.55 365.691 364.41 379.159 363.227 380.143C362.044 381.126 358.795 380.827 358.895 379.743C358.995 378.66 351.652 371.429 351.652 371.429L345.942 370.174L344.308 364.199Z" fill="white"/>
</mask>
<g mask="url(#mask15_23_348)">
<path d="M344.308 364.199C344.308 364.199 353.072 363.915 354.811 364.803C356.55 365.691 364.41 379.159 363.227 380.143C362.044 381.126 358.795 380.827 358.895 379.743C358.995 378.66 351.652 371.429 351.652 371.429L345.942 370.174L344.308 364.199Z" fill="#4355F1"/>
</g>
<mask id="mask16_23_348" style="mask-type:luminance" maskUnits="userSpaceOnUse" x="344" y="364" width="20" height="17">
<path d="M344.308 364.199C344.308 364.199 353.072 363.915 354.811 364.803C356.55 365.691 364.41 379.159 363.227 380.143C362.044 381.126 358.795 380.827 358.895 379.743C358.995 378.66 351.652 371.429 351.652 371.429L345.942 370.174L344.308 364.199Z" fill="white"/>
</mask>
<g mask="url(#mask16_23_348)">
<path opacity="0.5" d="M344.308 364.199C344.308 364.199 353.072 363.915 354.811 364.803C356.55 365.691 364.41 379.159 363.227 380.143C362.044 381.126 358.795 380.827 358.895 379.743C358.995 378.66 351.652 371.429 351.652 371.429L345.942 370.174L344.308 364.199Z" fill="white"/>
</g>
<path d="M344.308 364.199C344.308 364.199 353.072 363.915 354.811 364.803C356.55 365.691 364.41 379.159 363.227 380.143C362.044 381.126 358.795 380.827 358.895 379.743C358.995 378.66 351.652 371.429 351.652 371.429L345.942 370.174L344.308 364.199Z" stroke="#263238" stroke-miterlimit="10" stroke-linecap="round" stroke-linejoin="round"/>
<path d="M339.125 362.391C339.125 362.391 347.994 362.104 349.754 363.003C351.513 363.902 359.468 377.531 358.271 378.526C357.074 379.521 353.786 379.218 353.887 378.122C353.988 377.026 346.557 369.708 346.557 369.708L340.779 368.438L339.125 362.391Z" fill="white"/>
<mask id="mask17_23_348" style="mask-type:luminance" maskUnits="userSpaceOnUse" x="339" y="362" width="20" height="18">
<path d="M339.125 362.391C339.125 362.391 347.994 362.104 349.754 363.003C351.513 363.902 359.468 377.531 358.271 378.526C357.074 379.521 353.786 379.218 353.887 378.122C353.988 377.026 346.557 369.708 346.557 369.708L340.779 368.438L339.125 362.391Z" fill="white"/>
</mask>
<g mask="url(#mask17_23_348)">
<path d="M339.125 362.391C339.125 362.391 347.994 362.104 349.754 363.003C351.513 363.902 359.468 377.531 358.271 378.526C357.074 379.521 353.786 379.218 353.887 378.122C353.988 377.026 346.557 369.708 346.557 369.708L340.779 368.438L339.125 362.391Z" fill="#4355F1"/>
</g>
<mask id="mask18_23_348" style="mask-type:luminance" maskUnits="userSpaceOnUse" x="339" y="362" width="20" height="18">
<path d="M339.125 362.391C339.125 362.391 347.994 362.104 349.754 363.003C351.513 363.902 359.468 377.531 358.271 378.526C357.074 379.521 353.786 379.218 353.887 378.122C353.988 377.026 346.557 369.708 346.557 369.708L340.779 368.438L339.125 362.391Z" fill="white"/>
</mask>
<g mask="url(#mask18_23_348)">
<path opacity="0.5" d="M339.125 362.391C339.125 362.391 347.994 362.104 349.754 363.003C351.513 363.902 359.468 377.531 358.271 378.526C357.074 379.521 353.786 379.218 353.887 378.122C353.988 377.026 346.557 369.708 346.557 369.708L340.779 368.438L339.125 362.391Z" fill="white"/>
</g>
<path d="M339.125 362.391C339.125 362.391 347.994 362.104 349.754 363.003C351.513 363.902 359.468 377.531 358.271 378.526C357.074 379.521 353.786 379.218 353.887 378.122C353.988 377.026 346.557 369.708 346.557 369.708L340.779 368.438L339.125 362.391Z" stroke="#263238" stroke-miterlimit="10" stroke-linecap="round" stroke-linejoin="round"/>
<path d="M238.27 311.569C244.687 321.459 257.576 346.516 261.343 349.341C267.213 353.744 306.452 364.422 310.235 367.35C314.018 370.278 313.749 373.201 317.335 374.268C320.921 375.336 334.341 378.415 339.456 378.887C344.571 379.359 342.283 376.2 342.283 376.2L333.551 370.236L341.164 368.359C341.164 368.359 348.792 377.537 350.22 378.037C351.648 378.537 354.175 378.016 354.008 376.912C353.733 375.098 345.592 360.292 342.703 359.658C339.814 359.023 322.272 361.459 322.272 361.459C322.272 361.459 285.486 336.647 284.825 335.766C284.825 335.766 282.624 329.529 280.789 326.961C278.954 324.393 277.854 325.126 277.854 325.126C277.854 325.126 278.588 321.824 277.487 320.723C276.386 319.622 271.617 314.853 271.617 314.853L271.411 315.135C270.446 313.12 269.421 310.85 268.315 308.249C265.24 301.024 254.373 280.732 252.538 277.796C251.175 275.615 239.686 274.042 233.87 273.378" fill="#4355F1"/>
<mask id="mask19_23_348" style="mask-type:luminance" maskUnits="userSpaceOnUse" x="233" y="273" width="122" height="106">
<path d="M238.27 311.569C244.687 321.459 257.576 346.516 261.343 349.341C267.213 353.744 306.452 364.422 310.235 367.35C314.018 370.278 313.749 373.201 317.335 374.268C320.921 375.336 334.341 378.415 339.456 378.887C344.571 379.359 342.283 376.2 342.283 376.2L333.551 370.236L341.164 368.359C341.164 368.359 348.792 377.537 350.22 378.037C351.648 378.537 354.175 378.016 354.008 376.912C353.733 375.098 345.592 360.292 342.703 359.658C339.814 359.023 322.272 361.459 322.272 361.459C322.272 361.459 285.486 336.647 284.825 335.766C284.825 335.766 282.624 329.529 280.789 326.961C278.954 324.393 277.854 325.126 277.854 325.126C277.854 325.126 278.588 321.824 277.487 320.723C276.386 319.622 271.617 314.853 271.617 314.853L271.411 315.135C270.446 313.12 269.421 310.85 268.315 308.249C265.24 301.024 254.373 280.732 252.538 277.796C251.175 275.615 239.686 274.042 233.87 273.378" fill="white"/>
</mask>
<g mask="url(#mask19_23_348)">
<path opacity="0.16" d="M263.832 312.202C268.626 316.464 267.028 316.464 265.963 320.193C264.898 323.922 266.762 318.861 271.29 319.128C275.818 319.394 274.486 325.254 273.953 326.319C273.42 327.384 279.546 328.716 278.481 331.113C277.416 333.51 271.29 336.973 267.827 340.435C264.364 343.897 276.883 334.842 281.144 334.575C282.439 334.494 283.511 334.658 284.408 334.635C283.684 332.719 282.138 328.849 280.788 326.959C278.953 324.391 277.853 325.124 277.853 325.124C277.853 325.124 278.587 321.822 277.486 320.721C276.385 319.62 271.616 314.851 271.616 314.851L271.41 315.133C270.445 313.118 269.42 310.848 268.314 308.247C265.239 301.022 254.372 280.73 252.537 277.794C251.174 275.613 239.685 274.04 233.869 273.376L234.403 278.007L234.533 278.109C234.533 278.109 241.724 279.441 244.122 279.707C246.519 279.973 249.449 282.104 249.183 283.702C248.917 285.3 241.992 292.491 244.122 293.024C246.253 293.557 248.65 287.697 251.047 288.496C253.444 289.296 259.037 307.941 263.832 312.202Z" fill="black"/>
</g>
<path d="M238.27 311.569C244.687 321.459 257.576 346.516 261.343 349.341C267.213 353.744 306.452 364.422 310.235 367.35C314.018 370.278 313.749 373.201 317.335 374.268C320.921 375.336 334.341 378.415 339.456 378.887C344.571 379.359 342.283 376.2 342.283 376.2L333.551 370.236L341.164 368.359C341.164 368.359 348.792 377.537 350.22 378.037C351.648 378.537 354.175 378.016 354.008 376.912C353.733 375.098 345.592 360.292 342.703 359.658C339.814 359.023 322.272 361.459 322.272 361.459C322.272 361.459 285.486 336.647 284.825 335.766C284.825 335.766 282.624 329.529 280.789 326.961C278.954 324.393 277.854 325.126 277.854 325.126C277.854 325.126 278.588 321.824 277.487 320.723C276.386 319.622 271.617 314.853 271.617 314.853L271.411 315.135C270.446 313.12 269.421 310.85 268.315 308.249C265.24 301.024 254.373 280.732 252.538 277.796C251.175 275.615 239.686 274.042 233.87 273.378" stroke="#263238" stroke-miterlimit="10" stroke-linecap="round" stroke-linejoin="round"/>
<path d="M238.371 297.978C238.097 298.875 237.866 299.784 237.689 300.701" stroke="#263238" stroke-miterlimit="10" stroke-linecap="round" stroke-linejoin="round"/>
<path d="M248.086 281.447C248.086 281.447 243.399 286.56 240.205 293.3" stroke="#263238" stroke-miterlimit="10" stroke-linecap="round" stroke-linejoin="round"/>
<path d="M262.776 338.232C265.479 334.281 269.755 329.16 274.521 327.71" stroke="#263238" stroke-miterlimit="10" stroke-linecap="round" stroke-linejoin="round"/>
<path d="M259.785 343.147C259.785 343.147 260.266 342.21 261.127 340.792" stroke="#263238" stroke-miterlimit="10" stroke-linecap="round" stroke-linejoin="round"/>
<path d="M259.785 336.831C259.785 336.831 264.697 324.551 269.609 321.393C274.521 318.235 271.714 324.551 271.714 324.551" stroke="#263238" stroke-miterlimit="10" stroke-linecap="round" stroke-linejoin="round"/>
<path d="M310.235 367.349C314.018 370.277 313.749 373.2 317.335 374.267C320.921 375.335 334.341 378.414 339.456 378.886C344.571 379.358 342.283 376.199 342.283 376.199L333.551 370.235L341.164 368.358C341.164 368.358 348.792 377.536 350.22 378.036C351.648 378.536 354.367 378.718 354.008 376.911C353.311 373.404 345.592 360.291 342.703 359.657C339.814 359.022 322.272 361.458 322.272 361.458C322.272 361.458 288.759 338.432 285.092 335.968C270.859 337.337 264.071 344.794 261.246 349.261C261.278 349.286 261.313 349.317 261.344 349.34C267.213 353.743 306.452 364.421 310.235 367.349Z" fill="white"/>
<mask id="mask20_23_348" style="mask-type:luminance" maskUnits="userSpaceOnUse" x="261" y="335" width="94" height="44">
<path d="M310.235 367.349C314.018 370.277 313.749 373.2 317.335 374.267C320.921 375.335 334.341 378.414 339.456 378.886C344.571 379.358 342.283 376.199 342.283 376.199L333.551 370.235L341.164 368.358C341.164 368.358 348.792 377.536 350.22 378.036C351.648 378.536 354.367 378.718 354.008 376.911C353.311 373.404 345.592 360.291 342.703 359.657C339.814 359.022 322.272 361.458 322.272 361.458C322.272 361.458 288.759 338.432 285.092 335.968C270.859 337.337 264.071 344.794 261.246 349.261C261.278 349.286 261.313 349.317 261.344 349.34C267.213 353.743 306.452 364.421 310.235 367.349Z" fill="white"/>
</mask>
<g mask="url(#mask20_23_348)">
<path d="M354.007 376.912C352.194 372.458 345.591 360.292 342.702 359.658C339.813 359.023 322.271 361.459 322.271 361.459C322.271 361.459 288.758 338.433 285.091 335.969C280.824 336.379 277.238 337.343 274.216 338.604C279.507 341.587 314.77 361.579 319.206 362.491C323.931 363.462 339.681 360.902 342.452 362.762C344.214 363.945 349.424 372.255 352.988 378.153C354.02 377.978 354.373 377.811 354.007 376.912Z" fill="#4355F1"/>
</g>
<mask id="mask21_23_348" style="mask-type:luminance" maskUnits="userSpaceOnUse" x="261" y="335" width="94" height="44">
<path d="M310.235 367.349C314.018 370.277 313.749 373.2 317.335 374.267C320.921 375.335 334.341 378.414 339.456 378.886C344.571 379.358 342.283 376.199 342.283 376.199L333.551 370.235L341.164 368.358C341.164 368.358 348.792 377.536 350.22 378.036C351.648 378.536 354.367 378.718 354.008 376.911C353.311 373.404 345.592 360.291 342.703 359.657C339.814 359.022 322.272 361.458 322.272 361.458C322.272 361.458 288.759 338.432 285.092 335.968C270.859 337.337 264.071 344.794 261.246 349.261C261.278 349.286 261.313 349.317 261.344 349.34C267.213 353.743 306.452 364.421 310.235 367.349Z" fill="white"/>
</mask>
<g mask="url(#mask21_23_348)">
<path opacity="0.5" d="M354.007 376.912C351.171 370.541 345.591 360.292 342.702 359.658C339.813 359.023 322.271 361.459 322.271 361.459C322.271 361.459 288.758 338.433 285.091 335.969C280.824 336.379 277.238 337.343 274.216 338.604C279.507 341.587 314.77 361.579 319.206 362.491C323.931 363.462 339.681 360.902 342.452 362.762C344.214 363.945 349.424 372.255 352.988 378.153C354.02 377.978 354.401 377.799 354.007 376.912Z" fill="white"/>
</g>
<path d="M310.235 367.349C314.018 370.277 313.749 373.2 317.335 374.267C320.921 375.335 334.341 378.414 339.456 378.886C344.571 379.358 342.283 376.199 342.283 376.199L333.551 370.235L341.164 368.358C341.164 368.358 348.792 377.536 350.22 378.036C351.648 378.536 354.367 378.718 354.008 376.911C353.311 373.404 345.592 360.291 342.703 359.657C339.814 359.022 322.272 361.458 322.272 361.458C322.272 361.458 288.759 338.432 285.092 335.968C270.859 337.337 264.071 344.794 261.246 349.261C261.278 349.286 261.313 349.317 261.344 349.34C267.213 353.743 306.452 364.421 310.235 367.349Z" stroke="#263238" stroke-miterlimit="10" stroke-linecap="round" stroke-linejoin="round"/>
<path d="M221.849 192.73L191.731 205.296C191.731 205.296 191.423 213.068 187.864 220.605C184.305 228.142 186.381 242.387 189.8 250.075C193.219 257.763 208.286 254.757 213.835 253.799C219.385 252.841 224.774 250.614 224.774 250.614C224.774 250.614 229.693 252.828 234.526 249.254C234.526 249.254 218.373 203.995 221.849 192.73Z" fill="white"/>
<mask id="mask22_23_348" style="mask-type:luminance" maskUnits="userSpaceOnUse" x="186" y="192" width="49" height="64">
<path d="M221.849 192.73L191.731 205.296C191.731 205.296 191.423 213.068 187.864 220.605C184.305 228.142 186.381 242.387 189.8 250.075C193.219 257.763 208.286 254.757 213.835 253.799C219.385 252.841 224.774 250.614 224.774 250.614C224.774 250.614 229.693 252.828 234.526 249.254C234.526 249.254 218.373 203.995 221.849 192.73Z" fill="white"/>
</mask>
<g mask="url(#mask22_23_348)">
<path d="M221.849 192.73L191.731 205.296C191.731 205.296 191.423 213.068 187.864 220.605C184.305 228.142 186.381 242.387 189.8 250.075C190.38 251.38 191.302 252.371 192.45 253.122V252.54C192.45 252.54 186.857 238.69 187.922 230.699C188.987 222.709 193.515 218.713 194.048 213.653C194.581 208.592 194.314 206.195 204.436 202.466C214.557 198.737 218.819 195.275 219.884 199.003C220.949 202.732 225.211 227.236 228.141 233.096C231.071 238.956 230.804 245.082 226.277 247.745C222.627 249.892 217.075 252.728 211.71 254.167C212.511 254.031 213.232 253.902 213.835 253.798C219.385 252.84 224.774 250.613 224.774 250.613C224.774 250.613 229.693 252.827 234.526 249.253C234.526 249.253 218.373 203.995 221.849 192.73Z" fill="#4355F1"/>
</g>
<mask id="mask23_23_348" style="mask-type:luminance" maskUnits="userSpaceOnUse" x="186" y="192" width="49" height="64">
<path d="M221.849 192.73L191.731 205.296C191.731 205.296 191.423 213.068 187.864 220.605C184.305 228.142 186.381 242.387 189.8 250.075C193.219 257.763 208.286 254.757 213.835 253.799C219.385 252.841 224.774 250.614 224.774 250.614C224.774 250.614 229.693 252.828 234.526 249.254C234.526 249.254 218.373 203.995 221.849 192.73Z" fill="white"/>
</mask>
<g mask="url(#mask23_23_348)">
<path opacity="0.5" d="M221.849 192.73L191.731 205.296C191.731 205.296 191.423 213.068 187.864 220.605C184.305 228.142 186.381 242.387 189.8 250.075C190.38 251.38 191.302 252.371 192.45 253.122V252.54C192.45 252.54 186.857 238.69 187.922 230.699C188.987 222.709 193.515 218.713 194.048 213.653C194.581 208.592 194.314 206.195 204.436 202.466C214.557 198.737 218.819 195.275 219.884 199.003C220.949 202.732 225.211 227.236 228.141 233.096C231.071 238.956 230.804 245.082 226.277 247.745C222.627 249.892 217.075 252.728 211.71 254.167C212.511 254.031 213.232 253.902 213.835 253.798C219.385 252.84 224.774 250.613 224.774 250.613C224.774 250.613 229.693 252.827 234.526 249.253C234.526 249.253 218.373 203.995 221.849 192.73Z" fill="white"/>
</g>
<path d="M221.849 192.73L191.731 205.296C191.731 205.296 191.423 213.068 187.864 220.605C184.305 228.142 186.381 242.387 189.8 250.075C193.219 257.763 208.286 254.757 213.835 253.799C219.385 252.841 224.774 250.614 224.774 250.614C224.774 250.614 229.693 252.828 234.526 249.254C234.526 249.254 218.373 203.995 221.849 192.73Z" stroke="#263238" stroke-miterlimit="10" stroke-linecap="round" stroke-linejoin="round"/>
<path d="M206.628 212.441C206.628 212.441 206.785 215.655 205.984 217.684C205.183 219.713 197.632 227.543 197.862 228.385C198.093 229.227 198.769 231.965 200.109 232.231" stroke="#263238" stroke-miterlimit="10" stroke-linecap="round" stroke-linejoin="round"/>
<path d="M214.978 219.472C216.03 217.375 219.482 219.424 219.433 224.15" stroke="#263238" stroke-miterlimit="10" stroke-linecap="round" stroke-linejoin="round"/>
<path d="M197.905 213.294C197.905 213.294 200.845 211.996 203.466 216.762" stroke="#263238" stroke-miterlimit="10" stroke-linecap="round" stroke-linejoin="round"/>
<path d="M210.816 226.402C210.816 226.402 215.769 226.371 219.948 230.228" stroke="#263238" stroke-width="0.5" stroke-miterlimit="10" stroke-linecap="round" stroke-linejoin="round"/>
<path d="M194.355 220.147C194.355 220.147 197.646 220.602 199.446 221.556" stroke="#263238" stroke-width="0.5" stroke-miterlimit="10" stroke-linecap="round" stroke-linejoin="round"/>
<path d="M206.302 208.019C206.302 208.019 203.93 206.609 201.238 207.898C198.546 209.187 196.896 210.613 197.078 208.956C197.26 207.299 200.424 205.488 201.369 205.247C202.314 205.007 206.571 204.327 206.302 208.019Z" fill="#263238"/>
<path d="M213.841 204.274C213.841 204.274 218.355 207.75 220.335 212.733C222.315 217.716 223.916 212.266 222.312 208.997C220.709 205.729 216.195 202.253 213.841 204.274Z" fill="#263238"/>
<path d="M234.926 257.8C234.926 260.13 233.612 262.019 231.991 262.019C230.37 262.019 229.056 260.13 229.056 257.8C229.056 255.47 230.37 249.545 231.991 249.545C233.612 249.544 234.926 255.469 234.926 257.8Z" fill="#4355F1" stroke="#263238" stroke-miterlimit="10" stroke-linecap="round" stroke-linejoin="round"/>
<path d="M215.261 218.562C215.153 218.85 215.06 219.164 214.992 219.502C214.698 220.982 214.409 224.074 215.044 224.2C215.678 224.326 216.995 221.438 217.289 219.959C217.35 219.653 217.381 219.359 217.394 219.077C216.656 218.848 215.913 218.682 215.261 218.562Z" fill="#263238"/>
<path d="M198.205 213.022C198.119 213.271 198.042 213.534 197.986 213.817C197.692 215.297 197.701 218.548 198.335 218.674C198.969 218.8 199.989 215.753 200.283 214.273C200.359 213.89 200.396 213.52 200.399 213.179C199.589 212.962 198.847 212.943 198.205 213.022Z" fill="#263238"/>
<path d="M215.022 219.516L215.999 217.655C215.999 217.655 218.579 218.085 220.084 220.02" stroke="#263238" stroke-width="0.75" stroke-miterlimit="10" stroke-linecap="round" stroke-linejoin="round"/>
<path d="M198.205 213.022L199.229 211.85C199.229 211.85 199.659 211.635 202.024 212.71" stroke="#263238" stroke-width="0.75" stroke-miterlimit="10" stroke-linecap="round" stroke-linejoin="round"/>
<path d="M194.408 240.119C194.408 240.119 196.093 237.03 198.339 237.03C200.585 237.03 202.27 242.084 202.27 242.084" stroke="#263238" stroke-miterlimit="10" stroke-linecap="round" stroke-linejoin="round"/>
<path d="M122.041 373.382C119.515 373.382 116.789 372.331 115.739 371.881C114.633 371.407 114.121 370.126 114.595 369.02C115.07 367.915 116.351 367.403 117.456 367.876C119.469 368.734 122.05 369.258 122.746 368.961C124.007 367.538 125.963 358.922 123.437 354.818C122.874 353.902 122.343 353.734 121.993 353.686C120.563 353.489 118.44 354.963 117.689 355.664C116.809 356.484 115.431 356.438 114.61 355.558C113.789 354.678 113.836 353.299 114.716 352.478C115.116 352.105 118.731 348.847 122.575 349.368C123.88 349.544 125.734 350.237 127.148 352.534C130.866 358.576 128.316 370.092 125.468 372.371C124.536 373.115 123.314 373.382 122.041 373.382Z" fill="white"/>
<mask id="mask24_23_348" style="mask-type:luminance" maskUnits="userSpaceOnUse" x="114" y="349" width="16" height="25">
<path d="M122.041 373.382C119.515 373.382 116.789 372.331 115.739 371.881C114.633 371.407 114.121 370.126 114.595 369.02C115.07 367.915 116.351 367.403 117.456 367.876C119.469 368.734 122.05 369.258 122.746 368.961C124.007 367.538 125.963 358.922 123.437 354.818C122.874 353.902 122.343 353.734 121.993 353.686C120.563 353.489 118.44 354.963 117.689 355.664C116.809 356.484 115.431 356.438 114.61 355.558C113.789 354.678 113.836 353.299 114.716 352.478C115.116 352.105 118.731 348.847 122.575 349.368C123.88 349.544 125.734 350.237 127.148 352.534C130.866 358.576 128.316 370.092 125.468 372.371C124.536 373.115 123.314 373.382 122.041 373.382Z" fill="white"/>
</mask>
<g mask="url(#mask24_23_348)">
<path d="M124.934 354.157C124.015 352.39 122.81 351.857 121.962 351.721C119.463 351.32 117.113 353.827 116.854 354.113C116.354 354.665 116.294 355.532 116.637 356.197C117.018 356.12 117.384 355.947 117.689 355.662C118.439 354.962 120.563 353.488 121.993 353.684C122.343 353.732 122.874 353.9 123.437 354.816C125.963 358.92 124.007 367.536 122.746 368.959C122.051 369.256 119.469 368.732 117.456 367.874C117.202 367.765 116.938 367.714 116.677 367.705C116.737 368.277 117.039 368.797 117.519 369.04C118.202 369.386 119.974 370.195 121.615 370.195C122.442 370.195 123.237 369.99 123.842 369.416C125.693 367.665 127.35 358.805 124.934 354.157Z" fill="#4355F1"/>
</g>
<mask id="mask25_23_348" style="mask-type:luminance" maskUnits="userSpaceOnUse" x="114" y="349" width="16" height="25">
<path d="M122.041 373.382C119.515 373.382 116.789 372.331 115.739 371.881C114.633 371.407 114.121 370.126 114.595 369.02C115.07 367.915 116.351 367.403 117.456 367.876C119.469 368.734 122.05 369.258 122.746 368.961C124.007 367.538 125.963 358.922 123.437 354.818C122.874 353.902 122.343 353.734 121.993 353.686C120.563 353.489 118.44 354.963 117.689 355.664C116.809 356.484 115.431 356.438 114.61 355.558C113.789 354.678 113.836 353.299 114.716 352.478C115.116 352.105 118.731 348.847 122.575 349.368C123.88 349.544 125.734 350.237 127.148 352.534C130.866 358.576 128.316 370.092 125.468 372.371C124.536 373.115 123.314 373.382 122.041 373.382Z" fill="white"/>
</mask>
<g mask="url(#mask25_23_348)">
<path opacity="0.5" d="M124.934 354.157C124.015 352.39 122.81 351.857 121.962 351.721C119.463 351.32 117.113 353.827 116.854 354.113C116.354 354.665 116.294 355.532 116.637 356.197C117.018 356.12 117.384 355.947 117.689 355.662C118.439 354.962 120.563 353.488 121.993 353.684C122.343 353.732 122.874 353.9 123.437 354.816C125.963 358.92 124.007 367.536 122.746 368.959C122.051 369.256 119.469 368.732 117.456 367.874C117.202 367.765 116.938 367.714 116.677 367.705C116.737 368.277 117.039 368.797 117.519 369.04C118.202 369.386 119.974 370.195 121.615 370.195C122.442 370.195 123.237 369.99 123.842 369.416C125.693 367.665 127.35 358.805 124.934 354.157Z" fill="white"/>
</g>
<path d="M122.041 373.382C119.515 373.382 116.789 372.331 115.739 371.881C114.633 371.407 114.121 370.126 114.595 369.02C115.07 367.915 116.351 367.403 117.456 367.876C119.469 368.734 122.05 369.258 122.746 368.961C124.007 367.538 125.963 358.922 123.437 354.818C122.874 353.902 122.343 353.734 121.993 353.686C120.563 353.489 118.44 354.963 117.689 355.664C116.809 356.484 115.431 356.438 114.61 355.558C113.789 354.678 113.836 353.299 114.716 352.478C115.116 352.105 118.731 348.847 122.575 349.368C123.88 349.544 125.734 350.237 127.148 352.534C130.866 358.576 128.316 370.092 125.468 372.371C124.536 373.115 123.314 373.382 122.041 373.382Z" stroke="#263238" stroke-miterlimit="10" stroke-linecap="round" stroke-linejoin="round"/>
<path d="M118.183 347.58H94.131V379.504H118.183V347.58Z" fill="white"/>
<mask id="mask26_23_348" style="mask-type:luminance" maskUnits="userSpaceOnUse" x="94" y="347" width="25" height="33">
<path d="M118.183 347.58H94.131V379.504H118.183V347.58Z" fill="white"/>
</mask>
<g mask="url(#mask26_23_348)">
<path d="M103.983 347.58H94.131V379.504H103.983V347.58Z" fill="#4355F1"/>
</g>
<mask id="mask27_23_348" style="mask-type:luminance" maskUnits="userSpaceOnUse" x="94" y="347" width="25" height="33">
<path d="M118.183 347.58H94.131V379.504H118.183V347.58Z" fill="white"/>
</mask>
<g mask="url(#mask27_23_348)">
<path opacity="0.5" d="M103.983 347.58H94.131V379.504H103.983V347.58Z" fill="white"/>
</g>
<path d="M118.183 347.58H94.131V379.504H118.183V347.58Z" stroke="#263238" stroke-miterlimit="10" stroke-linecap="round" stroke-linejoin="round"/>
<path d="M250.336 379.059H147.605L144.246 322.581C143.853 320.238 145.66 318.103 148.036 318.103H249.905C252.281 318.103 254.087 320.238 253.695 322.581L250.336 379.059Z" fill="#263238" stroke="#263238" stroke-miterlimit="10" stroke-linecap="round" stroke-linejoin="round"/>
<path d="M152.658 319.455H249.158C251.499 319.455 253.279 321.522 252.892 323.79" stroke="white" stroke-miterlimit="10" stroke-linecap="round" stroke-linejoin="round"/>
<path d="M145.005 322.899C145.145 321.008 146.753 319.454 148.782 319.454" stroke="white" stroke-miterlimit="10" stroke-linecap="round" stroke-linejoin="round"/>
<path d="M250.773 373.556H147.168V379.059H250.773V373.556Z" fill="white" stroke="#263238" stroke-miterlimit="10" stroke-linecap="round" stroke-linejoin="round"/>
<path d="M198.603 353.198C202.656 353.198 205.941 351.227 205.941 348.795C205.941 346.363 202.656 344.392 198.603 344.392C194.55 344.392 191.265 346.363 191.265 348.795C191.265 351.227 194.55 353.198 198.603 353.198Z" fill="white" stroke="#263238" stroke-miterlimit="10" stroke-linecap="round" stroke-linejoin="round"/>
<path d="M407.025 378.412H21.167V387.784H407.025V378.412Z" fill="#263238"/>
<path d="M306.977 160.171H121.346C115.088 160.171 110.015 155.098 110.015 148.84V42.331C110.015 36.073 115.088 31 121.346 31H306.977C313.235 31 318.308 36.073 318.308 42.331V148.84C318.308 155.098 313.235 160.171 306.977 160.171Z" fill="#4355F1"/>
<path d="M219.06 105.227C235.9 102.52 247.356 86.6744 244.65 69.8348C241.943 52.9952 226.097 41.5383 209.258 44.2452C192.418 46.952 180.961 62.7975 183.668 79.6371C186.375 96.4767 202.22 107.934 219.06 105.227Z" fill="#263238"/>
<path d="M213.925 80.455L203.642 93.664C202.752 94.876 201.663 95.482 200.376 95.482C199.448 95.482 198.647 95.165 197.976 94.53C197.304 93.896 196.967 93.105 196.967 92.158C196.967 91.268 197.308 90.359 197.99 89.431L209.721 74.915L198.7 60.4C198.17 59.661 197.905 58.876 197.905 58.042C197.905 57.001 198.293 56.096 199.069 55.329C199.845 54.562 200.745 54.178 201.768 54.178C203.018 54.178 204.087 54.794 204.978 56.025L214.92 69.121L224.947 56.252C225.951 54.87 227.096 54.178 228.384 54.178C229.275 54.178 230.041 54.505 230.686 55.158C231.33 55.811 231.652 56.583 231.652 57.473C231.652 58.211 231.396 58.921 230.885 59.603L219.123 74.659L230.486 89.658C231.055 90.416 231.339 91.201 231.339 92.016C231.339 93.039 230.942 93.915 230.145 94.644C229.35 95.372 228.442 95.737 227.42 95.737C226.132 95.737 225.052 95.132 224.18 93.919L213.925 80.455Z" fill="white"/>
<path d="M273.032 137.803H155.291C150.316 137.803 146.284 133.77 146.284 128.795C146.284 123.82 150.317 119.788 155.291 119.788H273.032C278.007 119.788 282.039 123.821 282.039 128.795C282.04 133.77 278.007 137.803 273.032 137.803Z" fill="white"/>
<path d="M171.42 131.697C171.258 131.697 171.116 131.637 170.996 131.516C170.876 131.396 170.815 131.249 170.815 131.074C170.815 130.942 170.854 130.806 170.933 130.668L171.826 129.269L169.994 129.323C169.795 129.323 169.642 129.263 169.534 129.142C169.426 129.022 169.371 128.877 169.371 128.709C169.371 128.54 169.426 128.396 169.534 128.276C169.642 128.156 169.796 128.096 169.994 128.096L171.799 128.15L170.951 126.805C170.861 126.642 170.815 126.495 170.815 126.363C170.815 126.182 170.876 126.032 171 125.912C171.123 125.792 171.267 125.732 171.429 125.732C171.658 125.732 171.835 125.847 171.961 126.075L172.837 127.646L173.676 126.138C173.839 125.867 174.041 125.732 174.282 125.732C174.444 125.732 174.584 125.79 174.701 125.908C174.819 126.025 174.877 126.171 174.877 126.346C174.877 126.479 174.838 126.611 174.76 126.743L173.875 128.151L175.708 128.097C175.907 128.097 176.06 128.157 176.169 128.277C176.277 128.397 176.332 128.542 176.332 128.71C176.332 128.879 176.277 129.023 176.169 129.143C176.061 129.263 175.907 129.324 175.708 129.324L173.858 129.27L174.679 130.552C174.782 130.732 174.833 130.901 174.833 131.058C174.833 131.238 174.775 131.387 174.657 131.504C174.54 131.622 174.403 131.68 174.246 131.68C174.006 131.68 173.813 131.551 173.669 131.292L172.838 129.821L172.007 131.292C171.863 131.561 171.667 131.697 171.42 131.697Z" fill="black"/>
<path d="M180.601 131.697C180.438 131.697 180.297 131.637 180.176 131.516C180.055 131.396 179.995 131.249 179.995 131.074C179.995 130.942 180.035 130.806 180.113 130.668L181.007 129.269L179.174 129.323C178.975 129.323 178.822 129.263 178.714 129.142C178.606 129.022 178.552 128.877 178.552 128.709C178.552 128.54 178.606 128.396 178.714 128.276C178.822 128.156 178.976 128.096 179.174 128.096L180.979 128.15L180.131 126.805C180.041 126.642 179.995 126.495 179.995 126.363C179.995 126.182 180.057 126.032 180.181 125.912C180.304 125.792 180.447 125.732 180.609 125.732C180.838 125.732 181.016 125.847 181.142 126.075L182.018 127.646L182.857 126.138C183.02 125.867 183.222 125.732 183.462 125.732C183.625 125.732 183.764 125.79 183.882 125.908C184 126.025 184.058 126.171 184.058 126.346C184.058 126.479 184.018 126.611 183.94 126.743L183.056 128.151L184.889 128.097C185.088 128.097 185.241 128.157 185.35 128.277C185.458 128.397 185.512 128.542 185.512 128.71C185.512 128.879 185.458 129.023 185.35 129.143C185.242 129.263 185.088 129.324 184.889 129.324L183.039 129.27L183.86 130.552C183.963 130.732 184.014 130.901 184.014 131.058C184.014 131.238 183.956 131.387 183.838 131.504C183.72 131.622 183.584 131.68 183.427 131.68C183.186 131.68 182.994 131.551 182.849 131.292L182.019 129.821L181.188 131.292C181.042 131.561 180.848 131.697 180.601 131.697Z" fill="black"/>
<path d="M189.781 131.697C189.618 131.697 189.477 131.637 189.356 131.516C189.235 131.396 189.175 131.249 189.175 131.074C189.175 130.942 189.214 130.806 189.293 130.668L190.187 129.269L188.354 129.323C188.155 129.323 188.002 129.263 187.893 129.142C187.785 129.022 187.731 128.877 187.731 128.709C187.731 128.54 187.785 128.396 187.893 128.276C188.001 128.156 188.155 128.096 188.354 128.096L190.159 128.15L189.31 126.805C189.22 126.642 189.174 126.495 189.174 126.363C189.174 126.182 189.236 126.032 189.359 125.912C189.482 125.792 189.626 125.732 189.788 125.732C190.017 125.732 190.195 125.847 190.321 126.075L191.197 127.646L192.036 126.138C192.199 125.867 192.4 125.732 192.641 125.732C192.804 125.732 192.943 125.79 193.061 125.908C193.179 126.025 193.237 126.171 193.237 126.346C193.237 126.479 193.197 126.611 193.119 126.743L192.235 128.151L194.068 128.097C194.267 128.097 194.42 128.157 194.528 128.277C194.636 128.397 194.69 128.542 194.69 128.71C194.69 128.879 194.636 129.023 194.528 129.143C194.42 129.263 194.266 129.324 194.068 129.324L192.218 129.27L193.039 130.552C193.142 130.732 193.192 130.901 193.192 131.058C193.192 131.238 193.134 131.387 193.016 131.504C192.898 131.622 192.762 131.68 192.606 131.68C192.365 131.68 192.173 131.551 192.028 131.292L191.198 129.821L190.367 131.292C190.222 131.561 190.027 131.697 189.781 131.697Z" fill="black"/>
<path d="M198.96 131.697C198.798 131.697 198.656 131.637 198.536 131.516C198.415 131.396 198.355 131.249 198.355 131.074C198.355 130.942 198.394 130.806 198.473 130.668L199.366 129.269L197.534 129.323C197.335 129.323 197.182 129.263 197.074 129.142C196.966 129.022 196.911 128.877 196.911 128.709C196.911 128.54 196.966 128.396 197.074 128.276C197.182 128.156 197.336 128.096 197.534 128.096L199.339 128.15L198.491 126.805C198.401 126.642 198.355 126.495 198.355 126.363C198.355 126.182 198.416 126.032 198.539 125.912C198.662 125.792 198.806 125.732 198.969 125.732C199.198 125.732 199.375 125.847 199.501 126.075L200.377 127.646L201.216 126.138C201.379 125.867 201.58 125.732 201.821 125.732C201.983 125.732 202.123 125.79 202.24 125.908C202.358 126.025 202.416 126.171 202.416 126.346C202.416 126.479 202.377 126.611 202.299 126.743L201.414 128.151L203.247 128.097C203.446 128.097 203.599 128.157 203.707 128.277C203.815 128.397 203.87 128.542 203.87 128.71C203.87 128.879 203.815 129.023 203.707 129.143C203.599 129.263 203.445 129.324 203.247 129.324L201.396 129.27L202.217 130.552C202.32 130.732 202.371 130.901 202.371 131.058C202.371 131.238 202.313 131.387 202.195 131.504C202.078 131.622 201.941 131.68 201.784 131.68C201.544 131.68 201.351 131.551 201.207 131.292L200.376 129.821L199.545 131.292C199.403 131.561 199.207 131.697 198.96 131.697Z" fill="black"/>
<path d="M208.141 131.697C207.978 131.697 207.837 131.637 207.716 131.516C207.596 131.396 207.535 131.249 207.535 131.074C207.535 130.942 207.575 130.806 207.653 130.668L208.547 129.269L206.714 129.323C206.515 129.323 206.362 129.263 206.253 129.142C206.145 129.022 206.091 128.877 206.091 128.709C206.091 128.54 206.145 128.396 206.253 128.276C206.361 128.156 206.515 128.096 206.714 128.096L208.519 128.15L207.67 126.805C207.58 126.642 207.534 126.495 207.534 126.363C207.534 126.182 207.596 126.032 207.72 125.912C207.843 125.792 207.986 125.732 208.148 125.732C208.377 125.732 208.555 125.847 208.681 126.075L209.557 127.646L210.396 126.138C210.559 125.867 210.76 125.732 211.001 125.732C211.164 125.732 211.303 125.79 211.421 125.908C211.539 126.025 211.597 126.171 211.597 126.346C211.597 126.479 211.557 126.611 211.479 126.743L210.595 128.151L212.428 128.097C212.627 128.097 212.78 128.157 212.888 128.277C212.996 128.397 213.05 128.542 213.05 128.71C213.05 128.879 212.996 129.023 212.888 129.143C212.78 129.263 212.626 129.324 212.428 129.324L210.577 129.27L211.398 130.552C211.501 130.732 211.552 130.901 211.552 131.058C211.552 131.238 211.494 131.387 211.376 131.504C211.258 131.622 211.122 131.68 210.965 131.68C210.724 131.68 210.532 131.551 210.387 131.292L209.557 129.821L208.726 131.292C208.583 131.561 208.388 131.697 208.141 131.697Z" fill="black"/>
<path d="M217.321 131.697C217.158 131.697 217.017 131.637 216.896 131.516C216.775 131.396 216.716 131.249 216.716 131.074C216.716 130.942 216.755 130.806 216.833 130.668L217.727 129.269L215.895 129.323C215.695 129.323 215.542 129.263 215.434 129.142C215.326 129.022 215.272 128.877 215.272 128.709C215.272 128.54 215.326 128.396 215.434 128.276C215.542 128.156 215.696 128.096 215.895 128.096L217.699 128.15L216.851 126.805C216.762 126.642 216.716 126.495 216.716 126.363C216.716 126.182 216.777 126.032 216.901 125.912C217.024 125.792 217.167 125.732 217.329 125.732C217.558 125.732 217.736 125.847 217.862 126.075L218.738 127.646L219.577 126.138C219.74 125.867 219.942 125.732 220.182 125.732C220.345 125.732 220.485 125.79 220.602 125.908C220.72 126.025 220.778 126.171 220.778 126.346C220.778 126.479 220.738 126.611 220.66 126.743L219.776 128.151L221.609 128.097C221.808 128.097 221.961 128.157 222.07 128.277C222.178 128.397 222.232 128.542 222.232 128.71C222.232 128.879 222.178 129.023 222.07 129.143C221.962 129.263 221.808 129.324 221.609 129.324L219.759 129.27L220.58 130.552C220.683 130.732 220.734 130.901 220.734 131.058C220.734 131.238 220.676 131.387 220.558 131.504C220.441 131.622 220.304 131.68 220.147 131.68C219.906 131.68 219.714 131.551 219.57 131.292L218.739 129.821L217.909 131.292C217.764 131.561 217.568 131.697 217.321 131.697Z" fill="black"/>
<path d="M226.501 131.697C226.338 131.697 226.197 131.637 226.076 131.516C225.955 131.396 225.896 131.249 225.896 131.074C225.896 130.942 225.935 130.806 226.013 130.668L226.907 129.269L225.074 129.323C224.876 129.323 224.723 129.263 224.614 129.142C224.506 129.022 224.451 128.877 224.451 128.709C224.451 128.54 224.506 128.396 224.614 128.276C224.722 128.156 224.876 128.096 225.074 128.096L226.879 128.15L226.03 126.805C225.94 126.642 225.895 126.495 225.895 126.363C225.895 126.182 225.956 126.032 226.08 125.912C226.203 125.792 226.347 125.732 226.508 125.732C226.737 125.732 226.915 125.847 227.041 126.075L227.917 127.646L228.756 126.138C228.919 125.867 229.121 125.732 229.361 125.732C229.524 125.732 229.664 125.79 229.781 125.908C229.899 126.025 229.957 126.171 229.957 126.346C229.957 126.479 229.917 126.611 229.839 126.743L228.955 128.151L230.788 128.097C230.987 128.097 231.14 128.157 231.248 128.277C231.356 128.397 231.41 128.542 231.41 128.71C231.41 128.879 231.356 129.023 231.248 129.143C231.14 129.263 230.986 129.324 230.788 129.324L228.938 129.27L229.759 130.552C229.862 130.732 229.912 130.901 229.912 131.058C229.912 131.238 229.854 131.387 229.736 131.504C229.619 131.622 229.482 131.68 229.325 131.68C229.084 131.68 228.892 131.551 228.748 131.292L227.917 129.821L227.086 131.292C226.944 131.561 226.748 131.697 226.501 131.697Z" fill="black"/>
<path d="M235.682 131.697C235.519 131.697 235.378 131.637 235.257 131.516C235.136 131.396 235.077 131.249 235.077 131.074C235.077 130.942 235.116 130.806 235.194 130.668L236.088 129.269L234.255 129.323C234.057 129.323 233.904 129.263 233.795 129.142C233.687 129.022 233.632 128.877 233.632 128.709C233.632 128.54 233.687 128.396 233.795 128.276C233.903 128.156 234.057 128.096 234.255 128.096L236.06 128.15L235.212 126.805C235.123 126.642 235.077 126.495 235.077 126.363C235.077 126.182 235.138 126.032 235.262 125.912C235.385 125.792 235.529 125.732 235.691 125.732C235.92 125.732 236.098 125.847 236.224 126.075L237.1 127.646L237.939 126.138C238.102 125.867 238.304 125.732 238.544 125.732C238.707 125.732 238.847 125.79 238.964 125.908C239.082 126.025 239.14 126.171 239.14 126.346C239.14 126.479 239.101 126.611 239.022 126.743L238.138 128.151L239.971 128.097C240.17 128.097 240.323 128.157 240.432 128.277C240.541 128.397 240.594 128.542 240.594 128.71C240.594 128.879 240.54 129.023 240.432 129.143C240.324 129.263 240.17 129.324 239.971 129.324L238.121 129.27L238.942 130.552C239.045 130.732 239.096 130.901 239.096 131.058C239.096 131.238 239.038 131.387 238.92 131.504C238.803 131.622 238.666 131.68 238.509 131.68C238.268 131.68 238.076 131.551 237.932 131.292L237.101 129.821L236.27 131.292C236.124 131.561 235.928 131.697 235.682 131.697Z" fill="black"/>
<path d="M244.862 131.697C244.699 131.697 244.558 131.637 244.437 131.516C244.317 131.396 244.257 131.249 244.257 131.074C244.257 130.942 244.296 130.806 244.374 130.668L245.268 129.269L243.435 129.323C243.237 129.323 243.084 129.263 242.975 129.142C242.867 129.022 242.812 128.877 242.812 128.709C242.812 128.54 242.867 128.396 242.975 128.276C243.083 128.156 243.237 128.096 243.435 128.096L245.24 128.15L244.391 126.805C244.301 126.642 244.256 126.495 244.256 126.363C244.256 126.182 244.317 126.032 244.441 125.912C244.564 125.792 244.708 125.732 244.869 125.732C245.098 125.732 245.276 125.847 245.402 126.075L246.278 127.646L247.117 126.138C247.28 125.867 247.481 125.732 247.721 125.732C247.884 125.732 248.024 125.79 248.141 125.908C248.259 126.025 248.317 126.171 248.317 126.346C248.317 126.479 248.277 126.611 248.199 126.743L247.315 128.151L249.148 128.097C249.347 128.097 249.5 128.157 249.608 128.277C249.716 128.397 249.77 128.542 249.77 128.71C249.77 128.879 249.716 129.023 249.608 129.143C249.5 129.263 249.346 129.324 249.148 129.324L247.298 129.27L248.119 130.552C248.222 130.732 248.273 130.901 248.273 131.058C248.273 131.238 248.215 131.387 248.097 131.504C247.98 131.622 247.843 131.68 247.687 131.68C247.446 131.68 247.254 131.551 247.11 131.292L246.279 129.821L245.448 131.292C245.304 131.561 245.108 131.697 244.862 131.697Z" fill="black"/>
<path d="M254.042 131.697C253.879 131.697 253.738 131.637 253.617 131.516C253.496 131.396 253.437 131.249 253.437 131.074C253.437 130.942 253.476 130.806 253.554 130.668L254.448 129.269L252.616 129.323C252.418 129.323 252.265 129.263 252.156 129.142C252.048 129.022 251.993 128.877 251.993 128.709C251.993 128.54 252.048 128.396 252.156 128.276C252.264 128.156 252.418 128.096 252.616 128.096L254.421 128.15L253.572 126.805C253.483 126.642 253.437 126.495 253.437 126.363C253.437 126.182 253.498 126.032 253.622 125.912C253.745 125.792 253.889 125.732 254.05 125.732C254.279 125.732 254.457 125.847 254.583 126.075L255.459 127.646L256.298 126.138C256.461 125.867 256.662 125.732 256.903 125.732C257.066 125.732 257.206 125.79 257.323 125.908C257.441 126.025 257.499 126.171 257.499 126.346C257.499 126.479 257.459 126.611 257.381 126.743L256.497 128.151L258.33 128.097C258.529 128.097 258.682 128.157 258.79 128.277C258.898 128.397 258.952 128.542 258.952 128.71C258.952 128.879 258.898 129.023 258.79 129.143C258.682 129.263 258.528 129.324 258.33 129.324L256.48 129.27L257.301 130.552C257.404 130.732 257.454 130.901 257.454 131.058C257.454 131.238 257.396 131.387 257.278 131.504C257.161 131.622 257.024 131.68 256.867 131.68C256.626 131.68 256.434 131.551 256.29 131.292L255.459 129.821L254.628 131.292C254.484 131.561 254.288 131.697 254.042 131.697Z" fill="black"/>
<path d="M285.461 153.822H297.685" stroke="white" stroke-width="3" stroke-miterlimit="10" stroke-linecap="round" stroke-linejoin="round"/>
<path d="M115.828 63.768V144.948C115.828 149.849 119.801 153.822 124.702 153.822H273.855" stroke="white" stroke-width="3" stroke-miterlimit="10" stroke-linecap="round" stroke-linejoin="round"/>
<path d="M115.828 42.228V54.409" stroke="white" stroke-width="3" stroke-miterlimit="10" stroke-linecap="round" stroke-linejoin="round"/>
</svg>
