<svg width="50" height="50" viewBox="0 0 50 50" fill="none" xmlns="http://www.w3.org/2000/svg">
<path d="M4.54591 4.16648H40.9094V27.0832H45.4547V0H0V49.9994H24.9922V45.833H4.54591V4.16648Z" fill="white"/>
<path d="M9.09131 8.33301H36.3643V12.4995H9.09131V8.33301ZM9.09131 16.6665H31.8184V20.833H9.09131V16.6665ZM9.09131 24.9995H22.7278V29.166H9.09131V24.9995ZM38.6363 29.1665C32.3603 29.1665 27.2725 33.8303 27.2725 39.5833C27.2725 45.3363 32.3603 50.0001 38.6363 50.0001C44.9123 50.0001 50.0001 45.3363 50.0001 39.5833C50.0001 33.8303 44.9129 29.1665 38.6363 29.1665ZM38.6363 45.833C34.8765 45.833 31.8184 43.0292 31.8184 39.5833C31.8184 36.1369 34.8771 33.3336 38.6363 33.3336C42.3961 33.3336 45.4542 36.1374 45.4542 39.5833C45.4548 43.0292 42.3961 45.833 38.6363 45.833Z" fill="white"/>
<path d="M40.3414 35.2629H36.9321V40.2343L41.2444 44.1513L43.6438 41.9319L40.3414 38.9321V35.2629Z" fill="white"/>
</svg>
